<?xml version="1.0" encoding="UTF-8"?>
<svg version="1.1" xmlns="http://www.w3.org/2000/svg" width="1024" height="1024">
<path d="M0 0 C68.64 0 137.28 0 208 0 C208 6.93 208 13.86 208 21 C209.63469238 20.99476318 211.26938477 20.98952637 212.95361328 20.98413086 C219.02538504 20.96601452 225.09715442 20.95454369 231.16894531 20.94506836 C233.79557701 20.94004333 236.42220591 20.93322226 239.04882812 20.92456055 C242.82682993 20.91241493 246.60479471 20.90675333 250.3828125 20.90234375 C251.55490265 20.89718246 252.7269928 20.89202118 253.93460083 20.88670349 C255.58563309 20.88659019 255.58563309 20.88659019 257.27001953 20.88647461 C258.23376495 20.884254 259.19751038 20.88203339 260.19046021 20.87974548 C263 21 263 21 269 22 C269 28.93 269 35.86 269 43 C283.19 43 297.38 43 312 43 C312.33 49.6 312.66 56.2 313 63 C332.8 63.495 332.8 63.495 353 64 C353 70.93 353 77.86 353 85 C360.26 85 367.52 85 375 85 C375 91.93 375 98.86 375 106 C380.78874381 105.96052381 380.78874381 105.96052381 386.57739258 105.90991211 C387.30079834 105.90741455 388.0242041 105.90491699 388.76953125 105.90234375 C389.87711792 105.89448853 389.87711792 105.89448853 391.00708008 105.88647461 C393 106 393 106 396 107 C396 113.27 396 119.54 396 126 C402.93 126.33 409.86 126.66 417 127 C417 133.93 417 140.86 417 148 C423.93 148 430.86 148 438 148 C438 161.86 438 175.72 438 190 C444.93 190 451.86 190 459 190 C459 205.84 459 221.68 459 238 C465.93 238 472.86 238 480 238 C480 298.39 480 358.78 480 421 C473.07 421 466.14 421 459 421 C459 434.86 459 448.72 459 463 C452.07 463 445.14 463 438 463 C438 469.6 438 476.2 438 483 C431.07 483.33 424.14 483.66 417 484 C417 490.93 417 497.86 417 505 C410.4 505 403.8 505 397 505 C397 511.93 397 518.86 397 526 C390.07 526 383.14 526 376 526 C376 532.93 376 539.86 376 547 C362.14 547 348.28 547 334 547 C334 553.93 334 560.86 334 568 C334.66 568.33 335.32 568.66 336 569 C321.48 569 306.96 569 292 569 C292 575.93 292 582.86 292 590 C281.625 590.4375 281.625 590.4375 278.35791016 590.56811523 C277.51019043 590.60622314 276.6624707 590.64433105 275.7890625 590.68359375 C274.91975098 590.72025146 274.05043945 590.75690918 273.15478516 590.79467773 C270.9516738 590.87401544 270.9516738 590.87401544 269 592 C269 591.34 269 590.68 269 590 C242.27 590 215.54 590 188 590 C188 597.26 188 604.52 188 612 C133.22 612 78.44 612 22 612 C21.67 605.4 21.34 598.8 21 592 C18.55150635 591.97494385 16.1030127 591.9498877 13.58032227 591.92407227 C5.50967909 591.84076646 -2.56089812 591.75205926 -10.63145351 591.66066074 C-15.52682125 591.60538835 -20.4221949 591.55196159 -25.31762695 591.50268555 C-30.03793276 591.45510549 -34.75816354 591.40276525 -39.4783802 591.34705925 C-41.28336797 591.32660678 -43.08837635 591.30789859 -44.89340019 591.29092598 C-47.41265216 591.26694571 -49.93176098 591.23688289 -52.45092773 591.20532227 C-53.20474228 591.1995668 -53.95855682 591.19381134 -54.73521423 591.18788147 C-59.88594784 591.11405216 -59.88594784 591.11405216 -61 590 C-61 583.07 -61 576.14 -61 569 C-74.86 569 -88.72 569 -103 569 C-103 562.07 -103 555.14 -103 548 C-116.86 548 -130.72 548 -145 548 C-145 541.07 -145 534.14 -145 527 C-152.26 526.67 -159.52 526.34 -167 526 C-167 519.4 -167 512.8 -167 506 C-173.6 506 -180.2 506 -187 506 C-187 498.74 -187 491.48 -187 484 C-194.26 484 -201.52 484 -209 484 C-209 477.07 -209 470.14 -209 463 C-215.6 463 -222.2 463 -229 463 C-229.495 442.21 -229.495 442.21 -230 421 C-236.6 421 -243.2 421 -250 421 C-250 360.61 -250 300.22 -250 238 C-243.4 238 -236.8 238 -230 238 C-230 217.54 -230 197.08 -230 176 C-222.74 176 -215.48 176 -208 176 C-208 162.8 -208 149.6 -208 136 C-200.74 136 -193.48 136 -186 136 C-186 126.1 -186 116.2 -186 106 C-179.4 106 -172.8 106 -166 106 C-166 99.07 -166 92.14 -166 85 C-158.41 85 -150.82 85 -143 85 C-143 77.74 -143 70.48 -143 63 C-130.46 63 -117.92 63 -105 63 C-105 56.4 -105 49.8 -105 43 C-90.81 42.67 -76.62 42.34 -62 42 C-61.67 35.07 -61.34 28.14 -61 21 C-40.87 21 -20.74 21 0 21 C0 14.07 0 7.14 0 0 Z " fill="#FD8218" transform="translate(392,216)"/>
<path d="M0 0 C68.64 0 137.28 0 208 0 C208 6.93 208 13.86 208 21 C209.63469238 20.99476318 211.26938477 20.98952637 212.95361328 20.98413086 C219.02538504 20.96601452 225.09715442 20.95454369 231.16894531 20.94506836 C233.79557701 20.94004333 236.42220591 20.93322226 239.04882812 20.92456055 C242.82682993 20.91241493 246.60479471 20.90675333 250.3828125 20.90234375 C251.55490265 20.89718246 252.7269928 20.89202118 253.93460083 20.88670349 C255.58563309 20.88659019 255.58563309 20.88659019 257.27001953 20.88647461 C258.23376495 20.884254 259.19751038 20.88203339 260.19046021 20.87974548 C263 21 263 21 269 22 C269 28.93 269 35.86 269 43 C283.19 43 297.38 43 312 43 C312.33 49.6 312.66 56.2 313 63 C332.8 63.495 332.8 63.495 353 64 C353 70.93 353 77.86 353 85 C360.26 85 367.52 85 375 85 C375 91.93 375 98.86 375 106 C380.78874381 105.96052381 380.78874381 105.96052381 386.57739258 105.90991211 C387.30079834 105.90741455 388.0242041 105.90491699 388.76953125 105.90234375 C389.87711792 105.89448853 389.87711792 105.89448853 391.00708008 105.88647461 C393 106 393 106 396 107 C396 113.27 396 119.54 396 126 C402.93 126.33 409.86 126.66 417 127 C417 133.93 417 140.86 417 148 C423.93 148 430.86 148 438 148 C438 161.86 438 175.72 438 190 C444.93 190 451.86 190 459 190 C459 205.84 459 221.68 459 238 C465.93 238 472.86 238 480 238 C480 298.39 480 358.78 480 421 C473.07 421 466.14 421 459 421 C459 434.86 459 448.72 459 463 C452.07 463 445.14 463 438 463 C438 469.6 438 476.2 438 483 C431.07 483.33 424.14 483.66 417 484 C417 490.93 417 497.86 417 505 C410.4 505 403.8 505 397 505 C397 511.93 397 518.86 397 526 C390.07 526 383.14 526 376 526 C376 532.93 376 539.86 376 547 C362.14 547 348.28 547 334 547 C334 553.93 334 560.86 334 568 C334.66 568.33 335.32 568.66 336 569 C321.48 569 306.96 569 292 569 C292 575.93 292 582.86 292 590 C281.625 590.4375 281.625 590.4375 278.35791016 590.56811523 C277.51019043 590.60622314 276.6624707 590.64433105 275.7890625 590.68359375 C274.91975098 590.72025146 274.05043945 590.75690918 273.15478516 590.79467773 C270.9516738 590.87401544 270.9516738 590.87401544 269 592 C269 591.34 269 590.68 269 590 C242.27 590 215.54 590 188 590 C188 597.26 188 604.52 188 612 C133.22 612 78.44 612 22 612 C21.67 605.4 21.34 598.8 21 592 C18.55150635 591.97494385 16.1030127 591.9498877 13.58032227 591.92407227 C5.50967909 591.84076646 -2.56089812 591.75205926 -10.63145351 591.66066074 C-15.52682125 591.60538835 -20.4221949 591.55196159 -25.31762695 591.50268555 C-30.03793276 591.45510549 -34.75816354 591.40276525 -39.4783802 591.34705925 C-41.28336797 591.32660678 -43.08837635 591.30789859 -44.89340019 591.29092598 C-47.41265216 591.26694571 -49.93176098 591.23688289 -52.45092773 591.20532227 C-53.20474228 591.1995668 -53.95855682 591.19381134 -54.73521423 591.18788147 C-59.88594784 591.11405216 -59.88594784 591.11405216 -61 590 C-61 583.07 -61 576.14 -61 569 C-74.86 569 -88.72 569 -103 569 C-103 562.07 -103 555.14 -103 548 C-116.86 548 -130.72 548 -145 548 C-145 541.07 -145 534.14 -145 527 C-152.26 526.67 -159.52 526.34 -167 526 C-167 519.4 -167 512.8 -167 506 C-173.6 506 -180.2 506 -187 506 C-187 498.74 -187 491.48 -187 484 C-194.26 484 -201.52 484 -209 484 C-209 477.07 -209 470.14 -209 463 C-215.6 463 -222.2 463 -229 463 C-229.495 442.21 -229.495 442.21 -230 421 C-236.6 421 -243.2 421 -250 421 C-250 360.61 -250 300.22 -250 238 C-243.4 238 -236.8 238 -230 238 C-230 217.54 -230 197.08 -230 176 C-222.74 176 -215.48 176 -208 176 C-208 162.8 -208 149.6 -208 136 C-200.74 136 -193.48 136 -186 136 C-186 126.1 -186 116.2 -186 106 C-179.4 106 -172.8 106 -166 106 C-166 99.07 -166 92.14 -166 85 C-158.41 85 -150.82 85 -143 85 C-143.33 91.6 -143.66 98.2 -144 105 C-153.9 105.495 -153.9 105.495 -164 106 C-164.33 115.9 -164.66 125.8 -165 136 C-171.6 136 -178.2 136 -185 136 C-185 149.53 -185 163.06 -185 177 C-192.59 177 -200.18 177 -208 177 C-208 197.13 -208 217.26 -208 238 C-214.93 238 -221.86 238 -229 238 C-229 277.27 -229 316.54 -229 357 C-222.07 357 -215.14 357 -208 357 C-208.33 370.86 -208.66 384.72 -209 399 C-201.74 399 -194.48 399 -187 399 C-187 413.19 -187 427.38 -187 442 C-180.4 442 -173.8 442 -167 442 C-167 448.6 -167 455.2 -167 462 C-159.41 462 -151.82 462 -144 462 C-144 468.93 -144 475.86 -144 483 C-137.07 483 -130.14 483 -123 483 C-123 490.26 -123 497.52 -123 505 C-120.195 504.979375 -117.39 504.95875 -114.5 504.9375 C-102.65051914 504.89631411 -90.83333518 505.43069865 -79 506 C-79 512.6 -79 519.2 -79 526 C-66.13 526 -53.26 526 -40 526 C-40.00523682 523.10347656 -40.01047363 520.20695313 -40.01586914 517.22265625 C-40.03245858 507.63937752 -40.04349268 498.05609814 -40.05181217 488.47280884 C-40.05702484 482.66399372 -40.06409313 476.85519335 -40.07543945 471.04638672 C-40.08632577 465.43781388 -40.09228901 459.8292552 -40.09487724 454.22067261 C-40.09672114 452.0837278 -40.10032178 449.94678373 -40.10573006 447.80984497 C-40.11301673 444.8107131 -40.11398773 441.81163933 -40.11352539 438.8125 C-40.11712067 437.93424057 -40.12071594 437.05598114 -40.12442017 436.15110779 C-40.11587772 431.01090399 -39.74051441 426.08803066 -39 421 C-36.03 421 -33.06 421 -30 421 C-30 418.36 -30 415.72 -30 413 C-27.36 413 -24.72 413 -22 413 C-22 410.36 -22 407.72 -22 405 C-19.36 405 -16.72 405 -14 405 C-14 402.03 -14 399.06 -14 396 C-11.36 396 -8.72 396 -6 396 C-6 393.03 -6 390.06 -6 387 C-3.03 387 -0.06 387 3 387 C3 384.03 3 381.06 3 378 C5.64 378 8.28 378 11 378 C11 377.34 11 376.68 11 376 C34.1 376 57.2 376 81 376 C81 382.27 81 388.54 81 395 C110.7 395 140.4 395 171 395 C171 403.25 171 411.5 171 420 C135.36 420 99.72 420 63 420 C63 412.41 63 404.82 63 397 C48.48 397 33.96 397 19 397 C19 399.64 19 402.28 19 405 C16.36 405 13.72 405 11 405 C11 407.64 11 410.28 11 413 C8.36 413 5.72 413 3 413 C3 415.97 3 418.94 3 422 C0.36 422 -2.28 422 -5 422 C-5 424.64 -5 427.28 -5 430 C-7.64 430 -10.28 430 -13 430 C-13 461.35 -13 492.7 -13 525 C5.48 525 23.96 525 43 525 C43 532.26 43 539.52 43 547 C70.39 547 97.78 547 126 547 C126 539.74 126 532.48 126 525 C159.99 525.33 193.98 525.66 229 526 C229 519.07 229 512.14 229 505 C242.86 505 256.72 505 271 505 C271 499.06 271 493.12 271 487 C271.33 486.01 271.66 485.02 272 484 C285.53 484 299.06 484 313 484 C313 476.74 313 469.48 313 462 C319.93 462 326.86 462 334 462 C334 455.4 334 448.8 334 442 C340.93 442 347.86 442 355 442 C355 435.07 355 428.14 355 421 C361.93 420.67 368.86 420.34 376 420 C376 406.14 376 392.28 376 378 C369.4 378 362.8 378 356 378 C356 371.07 356 364.14 356 357 C376.295 356.505 376.295 356.505 397 356 C397 349.4 397 342.8 397 336 C403.27 336 409.54 336 416 336 C416.33 294.09 416.66 252.18 417 209 C410.4 209 403.8 209 397 209 C396.15638817 195.29130782 395.91250743 181.73633331 396 168 C388.74 168 381.48 168 374 168 C374 161.4 374 154.8 374 148 C366.74 148 359.48 148 352 148 C352 141.07 352 134.14 352 127 C349.3084375 127.0309375 349.3084375 127.0309375 346.5625 127.0625 C335.36633878 127.07405435 324.18301805 126.49526676 313 126 C313 128.97 313 131.94 313 135 C312.67 135 312.34 135 312 135 C312 125.1 312 115.2 312 105 C305.07 105 298.14 105 291 105 C291 97.74 291 90.48 291 83 C277.47 83 263.94 83 250 83 C250 76.4 250 69.8 250 63 C229.21 63 208.42 63 187 63 C187 56.4 187 49.8 187 43 C132.55 43 78.1 43 22 43 C22 50.26 22 57.52 22 65 C-5.35364873 65.11968052 -32.65929447 64.8661307 -60 64 C-59.99476318 63.39937744 -59.98952637 62.79875488 -59.98413086 62.17993164 C-59.96341986 59.47413162 -59.95035875 56.76834823 -59.9375 54.0625 C-59.92912109 53.11697266 -59.92074219 52.17144531 -59.91210938 51.19726562 C-59.90888672 50.29814453 -59.90566406 49.39902344 -59.90234375 48.47265625 C-59.89710693 47.64000244 -59.89187012 46.80734863 -59.88647461 45.94946289 C-59.78356708 43.99483202 -59.78356708 43.99483202 -61 43 C-61 49.93 -61 56.86 -61 64 C-75.19 64 -89.38 64 -104 64 C-104 70.6 -104 77.2 -104 84 C-116.87 84 -129.74 84 -143 84 C-143 77.07 -143 70.14 -143 63 C-130.46 63 -117.92 63 -105 63 C-105 56.4 -105 49.8 -105 43 C-90.81 42.67 -76.62 42.34 -62 42 C-61.67 35.07 -61.34 28.14 -61 21 C-40.87 21 -20.74 21 0 21 C0 14.07 0 7.14 0 0 Z " fill="#BB2E3A" transform="translate(392,216)"/>
<path d="M0 0 C20.13 0 40.26 0 61 0 C61 0.33 61 0.66 61 1 C41.2 1 21.4 1 1 1 C1 7.6 1 14.2 1 21 C3.31644531 20.98839844 5.63289062 20.97679687 8.01953125 20.96484375 C33.02799926 20.87027437 58.00142197 21.31943589 83 22 C83 14.74 83 7.48 83 0 C137.45 0 191.9 0 248 0 C248 6.6 248 13.2 248 20 C268.79 20 289.58 20 311 20 C311 26.6 311 33.2 311 40 C324.53 40 338.06 40 352 40 C352 47.26 352 54.52 352 62 C358.93 62 365.86 62 373 62 C373 71.9 373 81.8 373 92 C375.97 92 378.94 92 382 92 C382 94.31 382 96.62 382 99 C384.64 99 387.28 99 390 99 C390 101.97 390 104.94 390 108 C392.31 108 394.62 108 397 108 C397 110.64 397 113.28 397 116 C399.97 116 402.94 116 406 116 C406 118.64 406 121.28 406 124 C408.64 124 411.28 124 414 124 C414 136.87 414 149.74 414 163 C416.31 163 418.62 163 421 163 C421 165.64 421 168.28 421 171 C423.64 171 426.28 171 429 171 C429 173.64 429 176.28 429 179 C431.97 179 434.94 179 438 179 C438 181.64 438 184.28 438 187 C440.64 187 443.28 187 446 187 C448.15230561 209.6907964 448.22390442 232.23064265 448 255 C445.03 255 442.06 255 439 255 C439.0309375 256.4540625 439.0309375 256.4540625 439.0625 257.9375 C439 261 439 261 438 262 C435.66702567 262.04092937 433.33294775 262.04241723 431 262 C431 264.64 431 267.28 431 270 C428.69 270 426.38 270 424 270 C424 272.31 424 274.62 424 277 C422.02 277 420.04 277 418 277 C418 279.64 418 282.28 418 285 C415.36 285 412.72 285 410 285 C410 287.64 410 290.28 410 293 C407.69 293 405.38 293 403 293 C403 295.31 403 297.62 403 300 C400.36 300 397.72 300 395 300 C395 302.97 395 305.94 395 309 C392.69 309 390.38 309 388 309 C388 311.64 388 314.28 388 317 C385.36 317 382.72 317 380 317 C380 319.64 380 322.28 380 325 C377.36 325 374.72 325 372 325 C372 327.97 372 330.94 372 334 C369.36 334 366.72 334 364 334 C364 336.64 364 339.28 364 342 C361.36 342 358.72 342 356 342 C356 345.63 356 349.26 356 353 C325.31 353 294.62 353 263 353 C263 346.07 263 339.14 263 332 C287.75 332 312.5 332 338 332 C338 329.36 338 326.72 338 324 C340.64 324 343.28 324 346 324 C346 321.03 346 318.06 346 315 C348.97 315 351.94 315 355 315 C355 312.03 355 309.06 355 306 C357.31 306 359.62 306 362 306 C362 303.69 362 301.38 362 299 C364.97 299 367.94 299 371 299 C371 296.36 371 293.72 371 291 C372.98 291 374.96 291 377 291 C377 288.36 377 285.72 377 283 C379.64 283 382.28 283 385 283 C385 280.69 385 278.38 385 276 C387.31 276 389.62 276 392 276 C392 273.36 392 270.72 392 268 C394.64 268 397.28 268 400 268 C400 265.36 400 262.72 400 260 C402.31 260 404.62 260 407 260 C407 257.36 407 254.72 407 252 C409.64 252 412.28 252 415 252 C415 249.36 415 246.72 415 244 C417.97 244 420.94 244 424 244 C423.99476318 242.94611084 423.98952637 241.89222168 423.98413086 240.80639648 C423.96594216 236.87216043 423.95451755 232.93792805 423.94506836 229.00366211 C423.94005973 227.30541355 423.93325094 225.60716926 423.92456055 223.90893555 C423.91234227 221.45881085 423.90673686 219.0087435 423.90234375 216.55859375 C423.89718246 215.80726669 423.89202118 215.05593964 423.88670349 214.28184509 C423.88622829 209.75058507 424.25523564 205.47116319 425 201 C422.69 201 420.38 201 418 201 C418 198.36 418 195.72 418 193 C415.36 193 412.72 193 410 193 C410 190.36 410 187.72 410 185 C407.36 185 404.72 185 402 185 C402 182.69 402 180.38 402 178 C398.37 178 394.74 178 391 178 C391 165.79 391 153.58 391 141 C391.99 141 392.98 141 394 141 C394 140.01 394 139.02 394 138 C391.36 138 388.72 138 386 138 C386 135.36 386 132.72 386 130 C383.36 130 380.72 130 378 130 C378 126.7 378 123.4 378 120 C375.03 120 372.06 120 369 120 C369 117.36 369 114.72 369 112 C366.03 112 363.06 112 360 112 C360 108.7 360 105.4 360 102 C340.2 102 320.4 102 300 102 C300 97.05 300 92.1 300 87 C297.69 87 295.38 87 293 87 C293 84.69 293 82.38 293 80 C290.69 80 288.38 80 286 80 C286 77.03 286 74.06 286 71 C283.36 71 280.72 71 278 71 C278 68.03 278 65.06 278 62 C255.23 62 232.46 62 209 62 C209 55.07 209 48.14 209 41 C179.96 41 150.92 41 121 41 C121 47.93 121 54.86 121 62 C101.86 62 82.72 62 63 62 C63 69.26 63 76.52 63 84 C47.49 83.67 31.98 83.34 16 83 C16 85.97 16 88.94 16 92 C13.36 92 10.72 92 8 92 C8 94.97 8 97.94 8 101 C5.03 101 2.06 101 -1 101 C-1 103.31 -1 105.62 -1 108 C-3.64 108 -6.28 108 -9 108 C-9 110.64 -9 113.28 -9 116 C-11.64 116 -14.28 116 -17 116 C-17 118.97 -17 121.94 -17 125 C-19.31 125 -21.62 125 -24 125 C-24 127.64 -24 130.28 -24 133 C-26.31 133.33 -28.62 133.66 -31 134 C-31.33 136.31 -31.66 138.62 -32 141 C-34.64 141 -37.28 141 -40 141 C-40.33 174.99 -40.66 208.98 -41 244 C-38.36 244 -35.72 244 -33 244 C-33 246.64 -33 249.28 -33 252 C-30.36 252 -27.72 252 -25 252 C-25 254.64 -25 257.28 -25 260 C-22.36 260 -19.72 260 -17 260 C-17 262.64 -17 265.28 -17 268 C-14.36 268 -11.72 268 -9 268 C-9 270.64 -9 273.28 -9 276 C-6.03 276 -3.06 276 0 276 C0 278.64 0 281.28 0 284 C2.64 284 5.28 284 8 284 C8 286.64 8 289.28 8 292 C10.64 292 13.28 292 16 292 C16 294.64 16 297.28 16 300 C18.97 300 21.94 300 25 300 C25 314.19 25 328.38 25 343 C22.36 343 19.72 343 17 343 C17 346.3 17 349.6 17 353 C14.03 353 11.06 353 8 353 C8 355.97 8 358.94 8 362 C5.36 362 2.72 362 0 362 C0 364.64 0 367.28 0 370 C-2.97 370 -5.94 370 -9 370 C-9 372.31 -9 374.62 -9 377 C-11.64 377 -14.28 377 -17 377 C-17 405.05 -17 433.1 -17 462 C-24.92 462 -32.84 462 -41 462 C-41.09620412 440.96336474 -41.09879665 420.01448585 -40 399 C-47.92 399 -55.84 399 -64 399 C-64 391.74 -64 384.48 -64 377 C-70.6 377 -77.2 377 -84 377 C-84 370.07 -84 363.14 -84 356 C-91.59 356 -99.18 356 -107 356 C-107 349.4 -107 342.8 -107 336 C-113.27 336 -119.54 336 -126 336 C-126 321.81 -126 307.62 -126 293 C-132.93 293 -139.86 293 -147 293 C-147.495 245.48 -147.495 245.48 -148 197 C-154.27 196.67 -160.54 196.34 -167 196 C-167 234.94 -167 273.88 -167 314 C-167.33 314 -167.66 314 -168 314 C-168 274.73 -168 235.46 -168 195 C-161.07 195 -154.14 195 -147 195 C-147 174.87 -147 154.74 -147 134 C-139.41 134 -131.82 134 -124 134 C-124 120.47 -124 106.94 -124 93 C-117.4 93 -110.8 93 -104 93 C-104.01160156 90.84597656 -104.02320313 88.69195312 -104.03515625 86.47265625 C-104.04294737 84.39428861 -104.04902381 82.31592257 -104.05493164 80.23754883 C-104.05997101 78.78929927 -104.06680253 77.34105483 -104.07543945 75.89282227 C-104.08752247 73.81525412 -104.09323211 71.73775303 -104.09765625 69.66015625 C-104.10289307 68.40855713 -104.10812988 67.15695801 -104.11352539 65.86743164 C-104 63 -104 63 -103 62 C-101.5112814 61.91330568 -100.018555 61.89296506 -98.52734375 61.90234375 C-97.62822266 61.90556641 -96.72910156 61.90878906 -95.80273438 61.91210938 C-94.38444336 61.92467773 -94.38444336 61.92467773 -92.9375 61.9375 C-91.5134082 61.94426758 -91.5134082 61.94426758 -90.06054688 61.95117188 C-87.70696935 61.9629989 -85.35351523 61.97947975 -83 62 C-83.01160156 60.73542969 -83.02320313 59.47085938 -83.03515625 58.16796875 C-83.04453566 56.50781398 -83.0536357 54.84765761 -83.0625 53.1875 C-83.07087891 52.35412109 -83.07925781 51.52074219 -83.08789062 50.66210938 C-83.09111328 49.85966797 -83.09433594 49.05722656 -83.09765625 48.23046875 C-83.10289307 47.49207764 -83.10812988 46.75368652 -83.11352539 45.99291992 C-83 44 -83 44 -82 41 C-69.13 41 -56.26 41 -43 41 C-43 34.4 -43 27.8 -43 21 C-28.81 21 -14.62 21 0 21 C0 14.07 0 7.14 0 0 Z " fill="#FD8118" transform="translate(331,259)"/>
<path d="M0 0 C54.78 0 109.56 0 166 0 C166 6.93 166 13.86 166 21 C179.53 21 193.06 21 207 21 C207 27.93 207 34.86 207 42 C220.53 42 234.06 42 248 42 C248 48.93 248 55.86 248 63 C254.93 63 261.86 63 269 63 C269 91.05 269 119.1 269 148 C261.74 147.67 254.48 147.34 247 147 C247 153.6 247 160.2 247 167 C233.8 167 220.6 167 207 167 C207 173.93 207 180.86 207 188 C138.69 188 70.38 188 0 188 C0 181.07 0 174.14 0 167 C-14.19 167 -28.38 167 -43 167 C-43 160.73 -43 154.46 -43 148 C-49.6 148 -56.2 148 -63 148 C-63 141.4 -63 134.8 -63 128 C-69.6 128 -76.2 128 -83 128 C-83 106.55 -83 85.1 -83 63 C-76.4 63 -69.8 63 -63 63 C-63 56.07 -63 49.14 -63 42 C-56.4 42 -49.8 42 -43 42 C-43 35.4 -43 28.8 -43 22 C-28.81 22 -14.62 22 0 22 C0 14.74 0 7.48 0 0 Z " fill="#FEEF8B" transform="translate(414,363)"/>
<path d="M0 0 C68.64 0 137.28 0 208 0 C208 6.93 208 13.86 208 21 C209.63469238 20.99476318 211.26938477 20.98952637 212.95361328 20.98413086 C219.02538504 20.96601452 225.09715442 20.95454369 231.16894531 20.94506836 C233.79557701 20.94004333 236.42220591 20.93322226 239.04882812 20.92456055 C242.82682993 20.91241493 246.60479471 20.90675333 250.3828125 20.90234375 C251.55490265 20.89718246 252.7269928 20.89202118 253.93460083 20.88670349 C255.58563309 20.88659019 255.58563309 20.88659019 257.27001953 20.88647461 C258.23376495 20.884254 259.19751038 20.88203339 260.19046021 20.87974548 C263 21 263 21 269 22 C269 28.93 269 35.86 269 43 C283.19 43 297.38 43 312 43 C312.33 49.6 312.66 56.2 313 63 C332.8 63.495 332.8 63.495 353 64 C353 70.93 353 77.86 353 85 C360.26 85 367.52 85 375 85 C375 91.93 375 98.86 375 106 C380.78874381 105.96052381 380.78874381 105.96052381 386.57739258 105.90991211 C387.30079834 105.90741455 388.0242041 105.90491699 388.76953125 105.90234375 C389.87711792 105.89448853 389.87711792 105.89448853 391.00708008 105.88647461 C393 106 393 106 396 107 C396 113.27 396 119.54 396 126 C402.93 126.33 409.86 126.66 417 127 C417 133.93 417 140.86 417 148 C423.93 148 430.86 148 438 148 C438 177.7 438 207.4 438 238 C438.66 238.33 439.32 238.66 440 239 C439.34 239 438.68 239 438 239 C438 277.61 438 316.22 438 356 C430.74 356 423.48 356 416 356 C416 362.93 416 369.86 416 377 C409.73 377 403.46 377 397 377 C397 383.93 397 390.86 397 398 C390.07 398 383.14 398 376 398 C376 391.4 376 384.8 376 378 C369.4 378 362.8 378 356 378 C356 371.07 356 364.14 356 357 C376.295 356.505 376.295 356.505 397 356 C397 349.4 397 342.8 397 336 C403.27 336 409.54 336 416 336 C416.33 294.09 416.66 252.18 417 209 C410.4 209 403.8 209 397 209 C396.15638817 195.29130782 395.91250743 181.73633331 396 168 C388.74 168 381.48 168 374 168 C374 161.4 374 154.8 374 148 C366.74 148 359.48 148 352 148 C352 141.07 352 134.14 352 127 C349.3084375 127.0309375 349.3084375 127.0309375 346.5625 127.0625 C335.36633878 127.07405435 324.18301805 126.49526676 313 126 C313 128.97 313 131.94 313 135 C312.67 135 312.34 135 312 135 C312 125.1 312 115.2 312 105 C305.07 105 298.14 105 291 105 C291 97.74 291 90.48 291 83 C277.47 83 263.94 83 250 83 C250 76.4 250 69.8 250 63 C229.21 63 208.42 63 187 63 C187 56.4 187 49.8 187 43 C132.55 43 78.1 43 22 43 C22 50.26 22 57.52 22 65 C-5.35364873 65.11968052 -32.65929447 64.8661307 -60 64 C-59.99214478 63.09906616 -59.99214478 63.09906616 -59.98413086 62.17993164 C-59.96341986 59.47413162 -59.95035875 56.76834823 -59.9375 54.0625 C-59.92493164 52.64420898 -59.92493164 52.64420898 -59.91210938 51.19726562 C-59.90727539 49.84858398 -59.90727539 49.84858398 -59.90234375 48.47265625 C-59.89448853 47.22367554 -59.89448853 47.22367554 -59.88647461 45.94946289 C-59.78356708 43.99483202 -59.78356708 43.99483202 -61 43 C-61 49.93 -61 56.86 -61 64 C-75.19 64 -89.38 64 -104 64 C-104 70.6 -104 77.2 -104 84 C-116.87 84 -129.74 84 -143 84 C-143 77.07 -143 70.14 -143 63 C-130.46 63 -117.92 63 -105 63 C-105 56.4 -105 49.8 -105 43 C-90.81 42.67 -76.62 42.34 -62 42 C-61.67 35.07 -61.34 28.14 -61 21 C-40.87 21 -20.74 21 0 21 C0 14.07 0 7.14 0 0 Z " fill="#E14F1F" transform="translate(392,216)"/>
<path d="M0 0 C0.33 0 0.66 0 1 0 C1 6.93 1 13.86 1 21 C7.93 21 14.86 21 22 21 C22 14.4 22 7.8 22 1 C28.93 1 35.86 1 43 1 C43 7.93 43 14.86 43 22 C36.07 22 29.14 22 22 22 C22 28.6 22 35.2 22 42 C15.07 42 8.14 42 1 42 C1 49.26 1 56.52 1 64 C-12.53 64 -26.06 64 -40 64 C-40.33 70.93 -40.66 77.86 -41 85 C-54.86 85 -68.72 85 -83 85 C-83 91.93 -83 98.86 -83 106 C-94.95298628 106.02263955 -106.90595819 106.04096628 -118.85896111 106.05181217 C-124.40988846 106.05701902 -129.96080031 106.06407658 -135.51171875 106.07543945 C-140.87391435 106.08634666 -146.23609509 106.09229338 -151.59830093 106.09487724 C-153.63869587 106.09671741 -155.67909004 106.1003107 -157.71947861 106.10573006 C-160.58888219 106.11304457 -163.45822524 106.11398658 -166.32763672 106.11352539 C-167.5781356 106.1189183 -167.5781356 106.1189183 -168.85389709 106.12442017 C-174.69014877 106.11434449 -180.1254955 105.58745045 -186 105 C-186 112.26 -186 119.52 -186 127 C-213.39 127 -240.78 127 -269 127 C-269 119.74 -269 112.48 -269 105 C-287.48 105 -305.96 105 -325 105 C-325 73.98 -325 42.96 -325 11 C-322.36 11 -319.72 11 -317 11 C-317 11.33 -317 11.66 -317 12 C-319.31 12 -321.62 12 -324 12 C-324 21.9 -324 31.8 -324 42 C-306.84 42 -289.68 42 -272 42 C-272 48.93 -272 55.86 -272 63 C-264.08 63 -256.16 63 -248 63 C-248 56.07 -248 49.14 -248 42 C-186.29 42 -124.58 42 -61 42 C-61 35.07 -61 28.14 -61 21 C-40.87 21 -20.74 21 0 21 C0 14.07 0 7.14 0 0 Z " fill="#E24F1E" transform="translate(704,636)"/>
<path d="M0 0 C40.59 0 81.18 0 123 0 C123 6.93 123 13.86 123 21 C143.79 21 164.58 21 186 21 C186 25.95 186 30.9 186 36 C190.95 36 195.9 36 201 36 C201 38.64 201 41.28 201 44 C203.31 44 205.62 44 208 44 C208 46.97 208 49.94 208 53 C210.64 53 213.28 53 216 53 C216 55.97 216 58.94 216 62 C233.82 62 251.64 62 270 62 C270 65.3 270 68.6 270 72 C272.97 72 275.94 72 279 72 C279 74.31 279 76.62 279 79 C281.64 79 284.28 79 287 79 C287 81.97 287 84.94 287 88 C289.31 88 291.62 88 294 88 C294 90.64 294 93.28 294 96 C296.97 96 299.94 96 303 96 C303 98.64 303 101.28 303 104 C305.64 104 308.28 104 311 104 C311 116.87 311 129.74 311 143 C313.31 143 315.62 143 318 143 C318 145.64 318 148.28 318 151 C320.64 151 323.28 151 326 151 C326 153.64 326 156.28 326 159 C328.97 159 331.94 159 335 159 C335 161.64 335 164.28 335 167 C337.64 167 340.28 167 343 167 C345.15230561 189.6907964 345.22390442 212.23064265 345 235 C342.03 235 339.06 235 336 235 C336.020625 235.969375 336.04125 236.93875 336.0625 237.9375 C336 241 336 241 335 242 C332.66702567 242.04092937 330.33294775 242.04241723 328 242 C328 244.64 328 247.28 328 250 C325.69 250 323.38 250 321 250 C321 252.31 321 254.62 321 257 C319.02 257 317.04 257 315 257 C315 259.64 315 262.28 315 265 C312.36 265 309.72 265 307 265 C307 267.64 307 270.28 307 273 C304.69 273 302.38 273 300 273 C300 275.31 300 277.62 300 280 C297.36 280 294.72 280 292 280 C292 282.97 292 285.94 292 289 C289.69 289 287.38 289 285 289 C285 291.64 285 294.28 285 297 C282.36 297 279.72 297 277 297 C277 299.64 277 302.28 277 305 C274.36 305 271.72 305 269 305 C269 307.97 269 310.94 269 314 C266.36 314 263.72 314 261 314 C261 316.64 261 319.28 261 322 C258.36 322 255.72 322 253 322 C253 325.63 253 329.26 253 333 C222.31 333 191.62 333 160 333 C160 326.07 160 319.14 160 312 C184.75 312 209.5 312 235 312 C235 309.36 235 306.72 235 304 C237.64 304 240.28 304 243 304 C243 301.03 243 298.06 243 295 C245.97 295 248.94 295 252 295 C252 292.03 252 289.06 252 286 C254.31 286 256.62 286 259 286 C259 283.69 259 281.38 259 279 C261.97 279 264.94 279 268 279 C268 276.36 268 273.72 268 271 C269.98 271 271.96 271 274 271 C274 268.36 274 265.72 274 263 C276.64 263 279.28 263 282 263 C282 260.69 282 258.38 282 256 C284.31 256 286.62 256 289 256 C289 253.36 289 250.72 289 248 C291.64 248 294.28 248 297 248 C297 245.36 297 242.72 297 240 C299.31 240 301.62 240 304 240 C304 237.36 304 234.72 304 232 C306.64 232 309.28 232 312 232 C312 229.36 312 226.72 312 224 C314.97 224 317.94 224 321 224 C320.99214478 222.41916626 320.99214478 222.41916626 320.98413086 220.80639648 C320.96594216 216.87216043 320.95451755 212.93792805 320.94506836 209.00366211 C320.94005973 207.30541355 320.93325094 205.60716926 320.92456055 203.90893555 C320.91234227 201.45881085 320.90673686 199.0087435 320.90234375 196.55859375 C320.89718246 195.80726669 320.89202118 195.05593964 320.88670349 194.28184509 C320.88622829 189.75058507 321.25523564 185.47116319 322 181 C319.69 181 317.38 181 315 181 C315 178.36 315 175.72 315 173 C312.36 173 309.72 173 307 173 C307 170.36 307 167.72 307 165 C304.36 165 301.72 165 299 165 C299 162.69 299 160.38 299 158 C295.37 158 291.74 158 288 158 C288 145.79 288 133.58 288 121 C288.99 121 289.98 121 291 121 C291 120.01 291 119.02 291 118 C288.36 118 285.72 118 283 118 C283 115.36 283 112.72 283 110 C280.36 110 277.72 110 275 110 C275 106.7 275 103.4 275 100 C272.03 100 269.06 100 266 100 C266 97.36 266 94.72 266 92 C263.03 92 260.06 92 257 92 C257 88.7 257 85.4 257 82 C237.2 82 217.4 82 197 82 C197 77.05 197 72.1 197 67 C194.69 67 192.38 67 190 67 C190 64.69 190 62.38 190 60 C187.69 60 185.38 60 183 60 C183 57.03 183 54.06 183 51 C180.36 51 177.72 51 175 51 C175 48.03 175 45.06 175 42 C152.23 42 129.46 42 106 42 C106 35.07 106 28.14 106 21 C76.96 21 47.92 21 18 21 C18 27.93 18 34.86 18 42 C-1.47 42 -20.94 42 -41 42 C-41 35.07 -41 28.14 -41 21 C-27.47 21 -13.94 21 0 21 C0 14.07 0 7.14 0 0 Z " fill="#5BFCE4" transform="translate(434,279)"/>
<path d="M0 0 C35.31 0 70.62 0 107 0 C107 6.93 107 13.86 107 21 C120.53 21 134.06 21 148 21 C148 27.93 148 34.86 148 42 C154.6 42 161.2 42 168 42 C168.33 49.59 168.66 57.18 169 65 C162.07 65 155.14 65 148 65 C148 71.6 148 78.2 148 85 C93.55 85 39.1 85 -17 85 C-17 78.07 -17 71.14 -17 64 C-30.86 64 -44.72 64 -59 64 C-59 49.81 -59 35.62 -59 21 C-39.53 21 -20.06 21 0 21 C0 14.07 0 7.14 0 0 Z " fill="#FEFDBC" transform="translate(452,425)"/>
<path d="M0 0 C6.93 0 13.86 0 21 0 C21 60.39 21 120.78 21 183 C14.07 183 7.14 183 0 183 C0 196.86 0 210.72 0 225 C-6.93 225 -13.86 225 -21 225 C-21 231.6 -21 238.2 -21 245 C-27.93 245.33 -34.86 245.66 -42 246 C-42 252.93 -42 259.86 -42 267 C-48.6 267 -55.2 267 -62 267 C-62 273.93 -62 280.86 -62 288 C-68.93 288 -75.86 288 -83 288 C-83 294.93 -83 301.86 -83 309 C-96.86 309 -110.72 309 -125 309 C-125 315.93 -125 322.86 -125 330 C-124.34 330.33 -123.68 330.66 -123 331 C-137.52 331 -152.04 331 -167 331 C-167 337.93 -167 344.86 -167 352 C-177.375 352.4375 -177.375 352.4375 -180.64208984 352.56811523 C-181.48980957 352.60622314 -182.3375293 352.64433105 -183.2109375 352.68359375 C-184.08024902 352.72025146 -184.94956055 352.75690918 -185.84521484 352.79467773 C-188.0483262 352.87401544 -188.0483262 352.87401544 -190 354 C-190 353.34 -190 352.68 -190 352 C-216.73 352 -243.46 352 -271 352 C-271 345.07 -271 338.14 -271 331 C-257.8 331 -244.6 331 -231 331 C-231 323.74 -231 316.48 -231 309 C-209.88 309 -188.76 309 -167 309 C-167 302.07 -167 295.14 -167 288 C-153.14 288 -139.28 288 -125 288 C-125 280.74 -125 273.48 -125 266 C-111.14 266 -97.28 266 -83 266 C-83 258.74 -83 251.48 -83 244 C-76.07 244 -69.14 244 -62 244 C-62 237.4 -62 230.8 -62 224 C-55.4 224 -48.8 224 -42 224 C-42 217.07 -42 210.14 -42 203 C-35.07 203 -28.14 203 -21 203 C-21 189.14 -21 175.28 -21 161 C-14.07 161 -7.14 161 0 161 C0 107.87 0 54.74 0 0 Z " fill="#181D3E" transform="translate(851,454)"/>
<path d="M0 0 C54.78 0 109.56 0 166 0 C166 6.93 166 13.86 166 21 C179.53 21 193.06 21 207 21 C207 27.93 207 34.86 207 42 C220.53 42 234.06 42 248 42 C248 48.93 248 55.86 248 63 C254.93 63 261.86 63 269 63 C269 91.05 269 119.1 269 148 C261.41 147.67 253.82 147.34 246 147 C246 153.27 246 159.54 246 166 C233.13 166 220.26 166 207 166 C207 159.73 207 153.46 207 147 C213.6 147 220.2 147 227 147 C227 140.4 227 133.8 227 127 C233.6 127 240.2 127 247 127 C247 112.48 247 97.96 247 83 C240.4 83 233.8 83 227 83 C227 76.07 227 69.14 227 62 C213.47 62 199.94 62 186 62 C186 55.07 186 48.14 186 41 C172.47 41 158.94 41 145 41 C145 34.4 145 27.8 145 21 C104.08 21 63.16 21 21 21 C21 27.93 21 34.86 21 42 C7.14 42 -6.72 42 -21 42 C-21 48.93 -21 55.86 -21 63 C-28.26 63 -35.52 63 -43 63 C-43 76.2 -43 89.4 -43 103 C-49.93 103 -56.86 103 -64 103 C-63.67 111.25 -63.34 119.5 -63 128 C-69.6 128 -76.2 128 -83 128 C-83 106.55 -83 85.1 -83 63 C-76.4 63 -69.8 63 -63 63 C-63 56.07 -63 49.14 -63 42 C-56.4 42 -49.8 42 -43 42 C-43 35.4 -43 28.8 -43 22 C-28.81 22 -14.62 22 0 22 C0 14.74 0 7.48 0 0 Z " fill="#FCD560" transform="translate(414,363)"/>
<path d="M0 0 C20.46 0 40.92 0 62 0 C62 6.6 62 13.2 62 20 C46.82 20 31.64 20 16 20 C16 22.97 16 25.94 16 29 C13.36 29 10.72 29 8 29 C8 31.97 8 34.94 8 38 C5.03 38 2.06 38 -1 38 C-1 40.31 -1 42.62 -1 45 C-3.64 45 -6.28 45 -9 45 C-9 47.64 -9 50.28 -9 53 C-11.64 53 -14.28 53 -17 53 C-17 55.97 -17 58.94 -17 62 C-19.31 62 -21.62 62 -24 62 C-24 64.64 -24 67.28 -24 70 C-27.465 70.495 -27.465 70.495 -31 71 C-31.33 73.31 -31.66 75.62 -32 78 C-34.64 78 -37.28 78 -40 78 C-40.33 111.99 -40.66 145.98 -41 181 C-38.36 181 -35.72 181 -33 181 C-33 183.64 -33 186.28 -33 189 C-30.36 189 -27.72 189 -25 189 C-25 191.64 -25 194.28 -25 197 C-22.36 197 -19.72 197 -17 197 C-17 199.64 -17 202.28 -17 205 C-14.36 205 -11.72 205 -9 205 C-9 207.64 -9 210.28 -9 213 C-6.03 213 -3.06 213 0 213 C0 215.64 0 218.28 0 221 C2.64 221 5.28 221 8 221 C8 223.64 8 226.28 8 229 C10.64 229 13.28 229 16 229 C16 231.64 16 234.28 16 237 C18.97 237 21.94 237 25 237 C25 251.19 25 265.38 25 280 C22.36 280 19.72 280 17 280 C17 283.3 17 286.6 17 290 C14.03 290 11.06 290 8 290 C8 292.97 8 295.94 8 299 C5.36 299 2.72 299 0 299 C0 301.64 0 304.28 0 307 C-2.97 307 -5.94 307 -9 307 C-9 309.31 -9 311.62 -9 314 C-11.64 314 -14.28 314 -17 314 C-17 342.05 -17 370.1 -17 399 C-24.92 399 -32.84 399 -41 399 C-40.99476318 397.13158447 -40.98952637 395.26316895 -40.98413086 393.33813477 C-40.96777677 387.05186337 -40.95641363 380.76559712 -40.94818783 374.47931004 C-40.94304566 370.68093706 -40.9361133 366.88258783 -40.92456055 363.08422852 C-40.87007298 344.6961364 -41.04486068 326.37010104 -42 308 C-39.69 308 -37.38 308 -35 308 C-35 305.03 -35 302.06 -35 299 C-32.03 299 -29.06 299 -26 299 C-26 296.03 -26 293.06 -26 290 C-23.36 290 -20.72 290 -18 290 C-18 287.03 -18 284.06 -18 281 C-15.03 281 -12.06 281 -9 281 C-9 278.03 -9 275.06 -9 272 C-6.36 272 -3.72 272 -1 272 C-1 269.69 -1 267.38 -1 265 C0.32 265 1.64 265 3 265 C3 259.39 3 253.78 3 248 C0.03 248 -2.94 248 -6 248 C-6 245.03 -6 242.06 -6 239 C-9.3 239 -12.6 239 -16 239 C-16 236.03 -16 233.06 -16 230 C-18.97 230 -21.94 230 -25 230 C-25 227.36 -25 224.72 -25 222 C-27.31 222 -29.62 222 -32 222 C-32 219.36 -32 216.72 -32 214 C-34.64 214 -37.28 214 -40 214 C-40 211.36 -40 208.72 -40 206 C-42.64 206 -45.28 206 -48 206 C-48 203.36 -48 200.72 -48 198 C-50.64 198 -53.28 198 -56 198 C-56 195.36 -56 192.72 -56 190 C-58.31 190 -60.62 190 -63 190 C-63.02356199 179.63496961 -63.04113158 169.26994597 -63.05181217 158.90489388 C-63.05694798 154.08779047 -63.06386742 149.27070587 -63.07543945 144.45361328 C-63.12041164 125.19021022 -63.11432542 105.93655821 -62.55859375 86.6796875 C-62.53906206 85.97095615 -62.51953037 85.26222481 -62.49940681 84.53201675 C-62.3118464 77.9377024 -62.01475209 71.52624744 -61 65 C-58.03 65 -55.06 65 -52 65 C-52 62.03 -52 59.06 -52 56 C-49.36 56 -46.72 56 -44 56 C-44 53.03 -44 50.06 -44 47 C-41.03 47 -38.06 47 -35 47 C-35 43.7 -35 40.4 -35 37 C-32.03 37 -29.06 37 -26 37 C-26 34.36 -26 31.72 -26 29 C-23.36 29 -20.72 29 -18 29 C-18 26.03 -18 23.06 -18 20 C-15.03 20 -12.06 20 -9 20 C-9 17.36 -9 14.72 -9 12 C-6.36 11.67 -3.72 11.34 -1 11 C-0.67 7.37 -0.34 3.74 0 0 Z " fill="#60FCE3" transform="translate(331,322)"/>
<path d="M0 0 C6.27 0 12.54 0 19 0 C20.89977088 1.89977088 20.12012643 4.68939065 20.12442017 7.21670532 C20.12082489 8.11078094 20.11722961 9.00485657 20.11352539 9.92602539 C20.11367142 10.86251419 20.11381744 11.79900299 20.1139679 12.76387024 C20.11326837 15.87515539 20.10547415 18.98638149 20.09765625 22.09765625 C20.09579221 24.24857043 20.09436824 26.39948503 20.09336853 28.55039978 C20.08954225 34.22381758 20.07971102 39.89720995 20.06866455 45.57061768 C20.0584528 51.35501766 20.05387142 57.13942173 20.04882812 62.92382812 C20.03808885 74.28256507 20.02049116 85.64127645 20 97 C26.93 97 33.86 97 41 97 C41 111.19 41 125.38 41 140 C47.27 140 53.54 140 60 140 C60 146.6 60 153.2 60 160 C67.59 160 75.18 160 83 160 C83 166.93 83 173.86 83 181 C89.6 181 96.2 181 103 181 C103 188.26 103 195.52 103 203 C110.92 203 118.84 203 127 203 C127.13736975 224.01757189 126.59776345 244.9928846 126 266 C133.92 266 141.84 266 150 266 C150 237.95 150 209.9 150 181 C150.33 181 150.66 181 151 181 C151 194.86 151 208.72 151 223 C163.21 223 175.42 223 188 223 C188 244.12 188 265.24 188 287 C175.13 287 162.26 287 149 287 C149 280.4 149 273.8 149 267 C147.49953125 267.01160156 145.9990625 267.02320313 144.453125 267.03515625 C131.25535604 267.10448137 118.17591074 266.77505357 105 266 C105 258.74 105 251.48 105 244 C98.07 244 91.14 244 84 244 C84 237.07 84 230.14 84 223 C76.41 223 68.82 223 61 223 C61 216.4 61 209.8 61 203 C54.4 203 47.8 203 41 203 C41 188.81 41 174.62 41 160 C33.74 160 26.48 160 19 160 C19 146.47 19 132.94 19 119 C12.73 118.67 6.46 118.34 0 118 C0 79.06 0 40.12 0 0 Z " fill="#E24E1E" transform="translate(164,455)"/>
<path d="M0 0 C6.6 0 13.2 0 20 0 C20 6.93 20 13.86 20 21 C27.26 21 34.52 21 42 21 C42 27.93 42 34.86 42 42 C55.86 42 69.72 42 84 42 C84 48.93 84 55.86 84 63 C98.19 63 112.38 63 127 63 C127 70.26 127 77.52 127 85 C153.73 85 180.46 85 208 85 C208.33 91.6 208.66 98.2 209 105 C291.17 105.495 291.17 105.495 375 106 C375 113.26 375 120.52 375 128 C320.22 128 265.44 128 209 128 C208.67 121.4 208.34 114.8 208 108 C205.55150635 107.97494385 203.1030127 107.9498877 200.58032227 107.92407227 C192.50967909 107.84076646 184.43910188 107.75205926 176.36854649 107.66066074 C171.47317875 107.60538835 166.5778051 107.55196159 161.68237305 107.50268555 C156.96206724 107.45510549 152.24183646 107.40276525 147.5216198 107.34705925 C145.71663203 107.32660678 143.91162365 107.30789859 142.10659981 107.29092598 C139.58734784 107.26694571 137.06823902 107.23688289 134.54907227 107.20532227 C133.41835045 107.19668907 133.41835045 107.19668907 132.26478577 107.18788147 C127.11405216 107.11405216 127.11405216 107.11405216 126 106 C126 99.07 126 92.14 126 85 C112.14 85 98.28 85 84 85 C84 78.07 84 71.14 84 64 C70.14 64 56.28 64 42 64 C42 57.07 42 50.14 42 43 C31.11 42.505 31.11 42.505 20 42 C20 35.4 20 28.8 20 22 C13.4 22 6.8 22 0 22 C0 14.74 0 7.48 0 0 Z " fill="#191D40" transform="translate(205,700)"/>
<path d="M0 0 C23.1 0 46.2 0 70 0 C70 6.27 70 12.54 70 19 C99.7 19 129.4 19 160 19 C160 27.25 160 35.5 160 44 C124.36 44 88.72 44 52 44 C52 36.41 52 28.82 52 21 C37.48 21 22.96 21 8 21 C8 23.64 8 26.28 8 29 C5.36 29 2.72 29 0 29 C0 31.64 0 34.28 0 37 C-2.64 37 -5.28 37 -8 37 C-8 39.97 -8 42.94 -8 46 C-10.64 46 -13.28 46 -16 46 C-16 48.64 -16 51.28 -16 54 C-18.64 54 -21.28 54 -24 54 C-24 85.68 -24 117.36 -24 150 C-32.91 150 -41.82 150 -51 150 C-51.02261596 137.49093701 -51.04095273 124.98188767 -51.05181217 112.47280884 C-51.05702484 106.66399372 -51.06409313 100.85519335 -51.07543945 95.04638672 C-51.08632577 89.43781388 -51.09228901 83.8292552 -51.09487724 78.22067261 C-51.09672114 76.0837278 -51.10032178 73.94678373 -51.10573006 71.80984497 C-51.11301673 68.8107131 -51.11398773 65.81163933 -51.11352539 62.8125 C-51.11712067 61.93424057 -51.12071594 61.05598114 -51.12442017 60.15110779 C-51.11587772 55.01090399 -50.74051441 50.08803066 -50 45 C-47.03 45 -44.06 45 -41 45 C-41 42.36 -41 39.72 -41 37 C-38.36 37 -35.72 37 -33 37 C-33 34.36 -33 31.72 -33 29 C-30.36 29 -27.72 29 -25 29 C-25 26.03 -25 23.06 -25 20 C-22.36 20 -19.72 20 -17 20 C-17 17.03 -17 14.06 -17 11 C-14.03 11 -11.06 11 -8 11 C-8 8.03 -8 5.06 -8 2 C-5.36 2 -2.72 2 0 2 C0 1.34 0 0.68 0 0 Z " fill="#60FDE3" transform="translate(403,592)"/>
<path d="M0 0 C40.59 0 81.18 0 123 0 C123 6.93 123 13.86 123 21 C143.79 21 164.58 21 186 21 C186 25.95 186 30.9 186 36 C190.95 36 195.9 36 201 36 C201 38.64 201 41.28 201 44 C203.31 44 205.62 44 208 44 C208 46.97 208 49.94 208 53 C210.64 53 213.28 53 216 53 C216 55.97 216 58.94 216 62 C233.82 62 251.64 62 270 62 C269.34 62.99 268.68 63.98 268 65 C267.01 65 266.02 65 265 65 C264.67 67.64 264.34 70.28 264 73 C263.01 73 262.02 73 261 73 C261 73.99 261 74.98 261 76 C259.5459375 76.4021875 259.5459375 76.4021875 258.0625 76.8125 C256.5465625 77.4003125 256.5465625 77.4003125 255 78 C254.67 78.99 254.34 79.98 254 81 C252.97309555 80.99666908 252.97309555 80.99666908 251.92544556 80.99327087 C244.82074504 80.97120247 237.7160542 80.95608686 230.61132812 80.94506836 C227.95735275 80.94002958 225.30338016 80.93319849 222.64941406 80.92456055 C218.84178989 80.91247511 215.03420231 80.90676725 211.2265625 80.90234375 C210.03382721 80.89718246 208.84109192 80.89202118 207.61221313 80.88670349 C205.96072769 80.88659019 205.96072769 80.88659019 204.27587891 80.88647461 C202.8169371 80.88314369 202.8169371 80.88314369 201.32852173 80.87974548 C198.97539612 80.84543196 198.97539612 80.84543196 197 82 C197 77.05 197 72.1 197 67 C194.69 67 192.38 67 190 67 C190 64.69 190 62.38 190 60 C187.69 60 185.38 60 183 60 C183 57.03 183 54.06 183 51 C180.36 51 177.72 51 175 51 C175 48.03 175 45.06 175 42 C152.23 42 129.46 42 106 42 C106 35.07 106 28.14 106 21 C76.96 21 47.92 21 18 21 C18 27.93 18 34.86 18 42 C-1.47 42 -20.94 42 -41 42 C-41 35.07 -41 28.14 -41 21 C-27.47 21 -13.94 21 0 21 C0 14.07 0 7.14 0 0 Z " fill="#71FDE2" transform="translate(434,279)"/>
<path d="M0 0 C6.93 0 13.86 0 21 0 C21.10831617 11.04824923 20.70719093 21.97539847 20 33 C17.36 33 14.72 33 12 33 C12 35.64 12 38.28 12 41 C9.36 41 6.72 41 4 41 C4 43.64 4 46.28 4 49 C1.03 49 -1.94 49 -5 49 C-5 89.92 -5 130.84 -5 173 C-2.36 173 0.28 173 3 173 C3 175.64 3 178.28 3 181 C5.64 181 8.28 181 11 181 C11 183.64 11 186.28 11 189 C13.64 189 16.28 189 19 189 C19 191.97 19 194.94 19 198 C21.64 198 24.28 198 27 198 C27 200.97 27 203.94 27 207 C29.97 207 32.94 207 36 207 C36 209.64 36 212.28 36 215 C38.64 215 41.28 215 44 215 C44.024759 219.48404564 44.04288799 223.96805481 44.05493164 228.45214844 C44.05995365 229.97689507 44.0667725 231.50163691 44.07543945 233.02636719 C44.08759849 235.22071519 44.09324968 237.4149994 44.09765625 239.609375 C44.10289307 240.92905273 44.10812988 242.24873047 44.11352539 243.60839844 C44 247 44 247 43 251 C36.07 251 29.14 251 22 251 C22 243.08 22 235.16 22 227 C19.36 227 16.72 227 14 227 C14 224.03 14 221.06 14 218 C11.03 218 8.06 218 5 218 C5 215.03 5 212.06 5 209 C2.03 209 -0.94 209 -4 209 C-4 206.03 -4 203.06 -4 200 C-6.64 200 -9.28 200 -12 200 C-12 197.36 -12 194.72 -12 192 C-14.64 192 -17.28 192 -20 192 C-20 189.03 -20 186.06 -20 183 C-22.64 183 -25.28 183 -28 183 C-28.1321749 169.21046073 -28.26266587 155.42090657 -28.39115143 141.6313324 C-28.45089662 135.22459141 -28.51116871 128.81785639 -28.57275391 122.41113281 C-29.10239907 67.2362161 -29.10239907 67.2362161 -29 41 C-26.36 41 -23.72 41 -21 41 C-21 38.03 -21 35.06 -21 32 C-18.36 32 -15.72 32 -13 32 C-13 29.36 -13 26.72 -13 24 C-10.03 24 -7.06 24 -4 24 C-4 21.36 -4 18.72 -4 16 C-2.68 16 -1.36 16 0 16 C0 10.72 0 5.44 0 0 Z " fill="#60FDE4" transform="translate(247,343)"/>
<path d="M0 0 C6.93 0 13.86 0 21 0 C21 60.39 21 120.78 21 183 C14.07 183 7.14 183 0 183 C0 196.86 0 210.72 0 225 C-6.93 225 -13.86 225 -21 225 C-21 231.6 -21 238.2 -21 245 C-24.8053125 245.0309375 -24.8053125 245.0309375 -28.6875 245.0625 C-29.47729248 245.071604 -30.26708496 245.08070801 -31.08081055 245.09008789 C-34.85506693 245.10488141 -38.33476057 244.91811717 -42 244 C-42.96375537 230.19605773 -42.84033444 216.81883307 -42 203 C-35.07 203 -28.14 203 -21 203 C-21 189.14 -21 175.28 -21 161 C-14.07 161 -7.14 161 0 161 C0 107.87 0 54.74 0 0 Z " fill="#181E42" transform="translate(851,454)"/>
<path d="M0 0 C13.2 0 26.4 0 40 0 C40 7.26 40 14.52 40 22 C27.13 22 14.26 22 1 22 C1 28.93 1 35.86 1 43 C-67.64 43 -136.28 43 -207 43 C-207 36.07 -207 29.14 -207 22 C-138.69 22 -70.38 22 0 22 C0 14.74 0 7.48 0 0 Z " fill="#1D1E3E" transform="translate(621,530)"/>
<path d="M0 0 C20.13 0 40.26 0 61 0 C61 0.33 61 0.66 61 1 C41.2 1 21.4 1 1 1 C1 7.6 1 14.2 1 21 C7.93 21 14.86 21 22 21 C22 21.33 22 21.66 22 22 C14.74 22 7.48 22 0 22 C0 28.6 0 35.2 0 42 C-6.6 42 -13.2 42 -20 42 C-20 48.93 -20 55.86 -20 63 C-34.38620588 63.08772077 -48.64250398 62.88063502 -63 62 C-62.86145912 65.29201643 -62.71292976 68.58350709 -62.5625 71.875 C-62.52318359 72.81214844 -62.48386719 73.74929688 -62.44335938 74.71484375 C-62.40146484 75.61074219 -62.35957031 76.50664062 -62.31640625 77.4296875 C-62.26141968 78.67081299 -62.26141968 78.67081299 -62.20532227 79.93701172 C-62.11761673 82.06179429 -62.11761673 82.06179429 -61 84 C-60.52797321 95.00933065 -61.23902028 106.0201497 -62 117 C-62.33 117 -62.66 117 -63 117 C-63 106.11 -63 95.22 -63 84 C-69.93 84 -76.86 84 -84 84 C-84 89.28 -84 94.56 -84 100 C-85.32 100 -86.64 100 -88 100 C-88 102.64 -88 105.28 -88 108 C-90.97 108 -93.94 108 -97 108 C-97 110.64 -97 113.28 -97 116 C-99.64 116 -102.28 116 -105 116 C-105 118.97 -105 121.94 -105 125 C-107.97 125 -110.94 125 -114 125 C-114 131.93 -114 138.86 -114 146 C-114.33 146 -114.66 146 -115 146 C-115 139.07 -115 132.14 -115 125 C-117.64 125 -120.28 125 -123 125 C-123.33 114.44 -123.66 103.88 -124 93 C-117.4 93 -110.8 93 -104 93 C-104.01160156 90.84597656 -104.02320313 88.69195312 -104.03515625 86.47265625 C-104.04294737 84.39428861 -104.04902381 82.31592257 -104.05493164 80.23754883 C-104.05997101 78.78929927 -104.06680253 77.34105483 -104.07543945 75.89282227 C-104.08752247 73.81525412 -104.09323211 71.73775303 -104.09765625 69.66015625 C-104.10289307 68.40855713 -104.10812988 67.15695801 -104.11352539 65.86743164 C-104 63 -104 63 -103 62 C-101.5112814 61.91330568 -100.018555 61.89296506 -98.52734375 61.90234375 C-97.62822266 61.90556641 -96.72910156 61.90878906 -95.80273438 61.91210938 C-94.38444336 61.92467773 -94.38444336 61.92467773 -92.9375 61.9375 C-91.98810547 61.94201172 -91.03871094 61.94652344 -90.06054688 61.95117188 C-87.70696935 61.9629989 -85.35351523 61.97947975 -83 62 C-83.01160156 60.73542969 -83.02320313 59.47085938 -83.03515625 58.16796875 C-83.04453566 56.50781398 -83.0536357 54.84765761 -83.0625 53.1875 C-83.07087891 52.35412109 -83.07925781 51.52074219 -83.08789062 50.66210938 C-83.09111328 49.85966797 -83.09433594 49.05722656 -83.09765625 48.23046875 C-83.10289307 47.49207764 -83.10812988 46.75368652 -83.11352539 45.99291992 C-83 44 -83 44 -82 41 C-69.13 41 -56.26 41 -43 41 C-43 34.4 -43 27.8 -43 21 C-28.81 21 -14.62 21 0 21 C0 14.07 0 7.14 0 0 Z " fill="#E5511E" transform="translate(331,259)"/>
<path d="M0 0 C68.64 0 137.28 0 208 0 C208 6.93 208 13.86 208 21 C139.36 21 70.72 21 0 21 C0 14.07 0 7.14 0 0 Z " fill="#1B1C3B" transform="translate(392,216)"/>
<path d="M0 0 C67.98 0 135.96 0 206 0 C206 6.6 206 13.2 206 20 C138.02 20 70.04 20 0 20 C0 13.4 0 6.8 0 0 Z " fill="#FED45F" transform="translate(415,530)"/>
<path d="M0 0 C6.6 0 13.2 0 20 0 C20.02312209 23.56492595 20.04098083 47.12984917 20.05181217 70.69478416 C20.05697441 81.63571941 20.06401576 92.57664748 20.07543945 103.51757812 C20.08538847 113.05067151 20.09185395 122.5837597 20.09408849 132.11685812 C20.09539523 137.16727123 20.09847875 142.21766949 20.10573006 147.26807785 C20.11249369 152.01709858 20.11461625 156.76609828 20.11310768 161.51512337 C20.11338385 163.26229657 20.11538695 165.00947043 20.11920547 166.75663948 C20.12414807 169.13379623 20.12299617 171.51087257 20.12025452 173.88803101 C20.12316736 174.58646696 20.1260802 175.28490292 20.12908131 176.00450361 C20.11412121 180.77175758 20.11412121 180.77175758 19 183 C12.73 183 6.46 183 0 183 C0 122.61 0 62.22 0 0 Z " fill="#171C3E" transform="translate(142,454)"/>
<path d="M0 0 C3.114375 -0.020625 6.22875 -0.04125 9.4375 -0.0625 C10.91174438 -0.07615601 10.91174438 -0.07615601 12.41577148 -0.09008789 C13.18477783 -0.09258545 13.95378418 -0.09508301 14.74609375 -0.09765625 C15.53685303 -0.10289307 16.3276123 -0.10812988 17.14233398 -0.11352539 C19 0 19 0 20 1 C20.08651611 2.41570123 20.10704904 3.835595 20.09765625 5.25390625 C20.09282227 6.53491211 20.09282227 6.53491211 20.08789062 7.84179688 C20.07532227 9.18854492 20.07532227 9.18854492 20.0625 10.5625 C20.05798828 11.46419922 20.05347656 12.36589844 20.04882812 13.29492188 C20.03700225 15.53001314 20.0205222 17.76497437 20 20 C21.65 20 23.3 20 25 20 C24.67 20.66 24.34 21.32 24 22 C22.68 22 21.36 22 20 22 C20 28.93 20 35.86 20 43 C13.4 43 6.8 43 0 43 C0 49.93 0 56.86 0 64 C-20.13 64.33 -40.26 64.66 -61 65 C-61.33 70.94 -61.66 76.88 -62 83 C-64 85 -64 85 -67.89892578 85.22705078 C-69.58108793 85.22673341 -71.26327019 85.21539396 -72.9453125 85.1953125 C-73.8303244 85.1924826 -74.7153363 85.18965271 -75.62716675 85.18673706 C-78.45991412 85.1755224 -81.29234784 85.1504157 -84.125 85.125 C-86.04296419 85.11497185 -87.96093333 85.10584572 -89.87890625 85.09765625 C-94.5861562 85.07727854 -99.2927261 85.03813273 -104 85 C-104 78.07 -104 71.14 -104 64 C-90.47 64 -76.94 64 -63 64 C-63 56.74 -63 49.48 -63 42 C-49.14 42 -35.28 42 -21 42 C-21 34.74 -21 27.48 -21 20 C-14.07 20 -7.14 20 0 20 C0 13.4 0 6.8 0 0 Z " fill="#3B336F" transform="translate(789,678)"/>
<path d="M0 0 C54.78 0 109.56 0 166 0 C166 6.93 166 13.86 166 21 C111.22 21 56.44 21 0 21 C0 14.07 0 7.14 0 0 Z " fill="#1A1B3E" transform="translate(414,342)"/>
<path d="M0 0 C0.33 0 0.66 0 1 0 C1 6.93 1 13.86 1 21 C7.93 21 14.86 21 22 21 C22 14.4 22 7.8 22 1 C28.93 1 35.86 1 43 1 C43 7.93 43 14.86 43 22 C36.07 22 29.14 22 22 22 C22 28.6 22 35.2 22 42 C15.07 42 8.14 42 1 42 C1 48.93 1 55.86 1 63 C-12.53 63 -26.06 63 -40 63 C-41.125 52.875 -41.125 52.875 -41.0625 47.9375 C-41.05347656 46.99777344 -41.04445313 46.05804687 -41.03515625 45.08984375 C-41.02355469 44.40019531 -41.01195312 43.71054687 -41 43 C-42.53720703 43.01740234 -42.53720703 43.01740234 -44.10546875 43.03515625 C-45.466144 43.04454022 -46.82682124 43.05363977 -48.1875 43.0625 C-48.86103516 43.07087891 -49.53457031 43.07925781 -50.22851562 43.08789062 C-54.05323378 43.10654779 -57.20288716 42.75942257 -61 42 C-61 35.07 -61 28.14 -61 21 C-40.87 21 -20.74 21 0 21 C0 14.07 0 7.14 0 0 Z " fill="#E24E1D" transform="translate(704,636)"/>
<path d="M0 0 C39.6 0 79.2 0 120 0 C120 6.93 120 13.86 120 21 C80.4 21 40.8 21 0 21 C0 14.07 0 7.14 0 0 Z " fill="#FECA3B" transform="translate(500,657)"/>
<path d="M0 0 C6.93 0 13.86 0 21 0 C21.10831617 11.04824923 20.70719093 21.97539847 20 33 C17.36 33 14.72 33 12 33 C12 35.64 12 38.28 12 41 C9.36 41 6.72 41 4 41 C4 43.64 4 46.28 4 49 C1.03 49 -1.94 49 -5 49 C-5 61.21 -5 73.42 -5 86 C-12.59 86 -20.18 86 -28 86 C-28.90843837 76.02148401 -29.12243797 66.19261799 -29.0625 56.1875 C-29.05746824 54.70507966 -29.05290834 53.22265764 -29.04882812 51.74023438 C-29.0379707 48.1601205 -29.02080135 44.58007157 -29 41 C-26.36 41 -23.72 41 -21 41 C-21 38.03 -21 35.06 -21 32 C-18.36 32 -15.72 32 -13 32 C-13 29.36 -13 26.72 -13 24 C-10.03 24 -7.06 24 -4 24 C-4 21.36 -4 18.72 -4 16 C-2.68 16 -1.36 16 0 16 C0 10.72 0 5.44 0 0 Z " fill="#57FDE6" transform="translate(247,343)"/>
<path d="M0 0 C7.59 0 15.18 0 23 0 C22.67 6.6 22.34 13.2 22 20 C12.1 20.495 12.1 20.495 2 21 C1.67 30.9 1.34 40.8 1 51 C-5.6 51 -12.2 51 -19 51 C-19 64.2 -19 77.4 -19 91 C-26.59 91 -34.18 91 -42 91 C-42 77.8 -42 64.6 -42 51 C-34.74 51 -27.48 51 -20 51 C-20 41.1 -20 31.2 -20 21 C-13.4 21 -6.8 21 0 21 C0 14.07 0 7.14 0 0 Z " fill="#1A1E3F" transform="translate(226,301)"/>
<path d="M0 0 C7.26 0 14.52 0 22 0 C22 28.05 22 56.1 22 85 C14.74 85 7.48 85 0 85 C0 56.95 0 28.9 0 0 Z " fill="#1D1E3F" transform="translate(683,426)"/>
<path d="M0 0 C0.33 0 0.66 0 1 0 C1 6.93 1 13.86 1 21 C6.67846343 20.88037303 12.35670317 20.75784645 18.03491211 20.62768555 C19.96814185 20.58426959 21.90141159 20.54259958 23.8347168 20.50268555 C26.60738202 20.44514369 29.37984457 20.3814038 32.15234375 20.31640625 C33.02213364 20.29969376 33.89192352 20.28298126 34.78807068 20.26576233 C38.71115966 20.54973787 38.71115966 20.54973787 42 19 C42.14386104 17.67113927 42.22676288 16.33551413 42.28125 15 C42.31863281 14.195625 42.35601563 13.39125 42.39453125 12.5625 C42.42933594 11.716875 42.46414063 10.87125 42.5 10 C42.56860509 8.33315029 42.64130223 6.66646226 42.71875 5 C42.74904297 4.2575 42.77933594 3.515 42.81054688 2.75 C43 1 43 1 44 0 C46.95705321 -0.08868299 49.89065056 -0.11520296 52.84765625 -0.09765625 C54.17729652 -0.09553383 54.17729652 -0.09553383 55.53379822 -0.09336853 C58.37673254 -0.08775215 61.21958931 -0.07519691 64.0625 -0.0625 C65.98502491 -0.05748711 67.90755104 -0.05292384 69.83007812 -0.04882812 C74.55343964 -0.03862648 79.27663258 -0.01905437 84 0 C84 6.93 84 13.86 84 21 C70.14 21 56.28 21 42 21 C42 27.93 42 34.86 42 42 C28.14 42 14.28 42 0 42 C0 28.14 0 14.28 0 0 Z " fill="#15193A" transform="translate(684,742)"/>
<path d="M0 0 C13.86 0 27.72 0 42 0 C42 6.93 42 13.86 42 21 C55.2 21 68.4 21 82 21 C82 27.93 82 34.86 82 42 C68.47 42 54.94 42 41 42 C41 35.07 41 28.14 41 21 C27.47 21 13.94 21 0 21 C0 14.07 0 7.14 0 0 Z " fill="#1C1C3D" transform="translate(580,363)"/>
<path d="M0 0 C14.52 0 29.04 0 44 0 C44 6.93 44 13.86 44 21 C29.81 21 15.62 21 1 21 C1 27.6 1 34.2 1 41 C-11.87 41 -24.74 41 -38 41 C-38 34.07 -38 27.14 -38 20 C-25.46 20 -12.92 20 0 20 C0 13.4 0 6.8 0 0 Z " fill="#1A1B3B" transform="translate(287,259)"/>
<path d="M0 0 C13.2 0 26.4 0 40 0 C40 7.26 40 14.52 40 22 C27.13 22 14.26 22 1 22 C1 28.93 1 35.86 1 43 C-67.64 43 -136.28 43 -207 43 C-207 36.07 -207 29.14 -207 22 C-138.69 22 -70.38 22 0 22 C0 14.74 0 7.48 0 0 Z M-206 23 C-206 28.94 -206 34.88 -206 41 C-138.35 41 -70.7 41 -1 41 C-1 35.06 -1 29.12 -1 23 C-68.65 23 -136.3 23 -206 23 Z " fill="#13153F" transform="translate(621,530)"/>
<path d="M0 0 C21.12 0 42.24 0 64 0 C64 6.93 64 13.86 64 21 C78.52 21 93.04 21 108 21 C108 21.33 108 21.66 108 22 C72.36 22 36.72 22 0 22 C0 14.74 0 7.48 0 0 Z " fill="#3E346E" transform="translate(620,763)"/>
<path d="M0 0 C6.93 0 13.86 0 21 0 C21 21.45 21 42.9 21 65 C14.07 65 7.14 65 0 65 C0 43.55 0 22.1 0 0 Z " fill="#181B3F" transform="translate(310,426)"/>
<path d="M0 0 C7.26 0 14.52 0 22 0 C22 6.93 22 13.86 22 21 C27.78874381 20.96052381 27.78874381 20.96052381 33.57739258 20.90991211 C34.66250122 20.90616577 34.66250122 20.90616577 35.76953125 20.90234375 C36.50792236 20.89710693 37.24631348 20.89187012 38.00708008 20.88647461 C40 21 40 21 43 22 C43 28.27 43 34.54 43 41 C49.93 41.33 56.86 41.66 64 42 C64.020625 45.279375 64.04125 48.55875 64.0625 51.9375 C64.071604 52.97253662 64.08070801 54.00757324 64.09008789 55.07397461 C64.09258545 55.88358643 64.09508301 56.69319824 64.09765625 57.52734375 C64.10289307 58.35999756 64.10812988 59.19265137 64.11352539 60.05053711 C64 62 64 62 63 63 C61.5112814 63.08669432 60.018555 63.10703494 58.52734375 63.09765625 C57.71773193 63.09515869 56.90812012 63.09266113 56.07397461 63.09008789 C55.03893799 63.08098389 54.00390137 63.07187988 52.9375 63.0625 C49.658125 63.041875 46.37875 63.02125 43 63 C43 56.07 43 49.14 43 42 C35.74 42 28.48 42 21 42 C21 34.74 21 27.48 21 20 C14.07 20 7.14 20 0 20 C0 13.4 0 6.8 0 0 Z " fill="#1D1C3D" transform="translate(745,301)"/>
<path d="M0 0 C6.6 0 13.2 0 20 0 C20 13.53 20 27.06 20 41 C27.26 41 34.52 41 42 41 C42 48.26 42 55.52 42 63 C34.74 63 27.48 63 20 63 C20 56.07 20 49.14 20 42 C13.4 42 6.8 42 0 42 C-0.16639892 37.14371143 -0.32901097 32.287591 -0.48217773 27.4309082 C-0.53532451 25.78109656 -0.5906298 24.1313529 -0.64819336 22.48168945 C-0.7308734 20.10122331 -0.80561351 17.72061524 -0.87890625 15.33984375 C-0.90594131 14.61039047 -0.93297638 13.88093719 -0.96083069 13.12937927 C-0.98092697 12.42918167 -1.00102325 11.72898407 -1.02172852 11.00756836 C-1.04171402 10.4013414 -1.06169952 9.79511444 -1.08229065 9.17051697 C-0.9656764 6.09467301 -0.43530254 3.04711776 0 0 Z " fill="#1A1F43" transform="translate(163,637)"/>
<path d="M0 0 C2.97 0 5.94 0 9 0 C8.01 1.485 8.01 1.485 7 3 C5.02 3 3.04 3 1 3 C1 22.47 1 41.94 1 62 C9.25 62 17.5 62 26 62 C26 76.19 26 90.38 26 105 C17.09 105 8.18 105 -1 105 C-1.02261596 92.49093701 -1.04095273 79.98188767 -1.05181217 67.47280884 C-1.05702484 61.66399372 -1.06409313 55.85519335 -1.07543945 50.04638672 C-1.08632577 44.43781388 -1.09228901 38.8292552 -1.09487724 33.22067261 C-1.09672114 31.0837278 -1.10032178 28.94678373 -1.10573006 26.80984497 C-1.11301673 23.8107131 -1.11398773 20.81163933 -1.11352539 17.8125 C-1.11712067 16.93424057 -1.12071594 16.05598114 -1.12442017 15.15110779 C-1.11587772 10.01090399 -0.74051441 5.08803066 0 0 Z " fill="#3BC1ED" transform="translate(353,637)"/>
<path d="M0 0 C6.93 0 13.86 0 21 0 C20.67 14.19 20.34 28.38 20 43 C6.47 43 -7.06 43 -21 43 C-21 36.07 -21 29.14 -21 22 C-14.07 22 -7.14 22 0 22 C0 14.74 0 7.48 0 0 Z " fill="#181E42" transform="translate(830,635)"/>
<path d="M0 0 C20.13 0 40.26 0 61 0 C61 6.93 61 13.86 61 21 C40.87 21 20.74 21 0 21 C0 14.07 0 7.14 0 0 Z " fill="#1B1C3B" transform="translate(600,238)"/>
<path d="M0 0 C6.6 0 13.2 0 20 0 C20 20.13 20 40.26 20 61 C13.4 61 6.8 61 0 61 C0 40.87 0 20.74 0 0 Z " fill="#181C3E" transform="translate(163,393)"/>
<path d="M0 0 C20.13 0 40.26 0 61 0 C61 6.6 61 13.2 61 20 C40.87 20 20.74 20 0 20 C0 13.4 0 6.8 0 0 Z " fill="#1B1C3B" transform="translate(331,238)"/>
<path d="M0 0 C6.93 0 13.86 0 21 0 C21 15.84 21 31.68 21 48 C14.07 48 7.14 48 0 48 C0 32.16 0 16.32 0 0 Z " fill="#171C3E" transform="translate(830,406)"/>
<path d="M0 0 C6.93 0 13.86 0 21 0 C21 60.39 21 120.78 21 183 C14.07 183 7.14 183 0 183 C0 196.86 0 210.72 0 225 C-6.93 225 -13.86 225 -21 225 C-21 231.6 -21 238.2 -21 245 C-24.8053125 245.0309375 -24.8053125 245.0309375 -28.6875 245.0625 C-29.47729248 245.071604 -30.26708496 245.08070801 -31.08081055 245.09008789 C-34.95275691 245.10526431 -38.16330116 244.76733977 -42 244 C-42.33 237.4 -42.66 230.8 -43 224 C-38.1428125 223.7525 -38.1428125 223.7525 -33.1875 223.5 C-32.21192139 223.44779297 -31.23634277 223.39558594 -30.23120117 223.34179688 C-20.82247811 222.89013515 -11.41672593 222.95559603 -2 223 C-1.97494385 221.7632251 -1.9498877 220.5264502 -1.92407227 219.25219727 C-1.83017747 214.68063287 -1.72991371 210.10922682 -1.62768555 205.5378418 C-1.58426856 203.55610854 -1.54259863 201.57433622 -1.50268555 199.5925293 C-1.44514617 196.7503683 -1.38140555 193.90840517 -1.31640625 191.06640625 C-1.29969376 190.17474258 -1.28298126 189.28307892 -1.26576233 188.36439514 C-1.11387171 182.11387171 -1.11387171 182.11387171 0 181 C1.4887186 180.91330568 2.981445 180.89296506 4.47265625 180.90234375 C5.37177734 180.90556641 6.27089844 180.90878906 7.19726562 180.91210938 C8.14279297 180.92048828 9.08832031 180.92886719 10.0625 180.9375 C11.01189453 180.94201172 11.96128906 180.94652344 12.93945312 180.95117188 C15.29303065 180.9629989 17.64648477 180.97947975 20 181 C19.83748025 179.83373581 19.6749605 178.66747162 19.50751591 177.46586609 C19.01126852 173.47688643 18.87678713 169.56949664 18.87974548 165.54614258 C18.87889106 164.84101973 18.87803663 164.13589687 18.87715632 163.40940666 C18.87552278 161.07108815 18.88098769 158.73284304 18.88647461 156.39453125 C18.88675697 154.70864361 18.8865978 153.02275585 18.8860321 151.33686829 C18.88574603 146.77755922 18.89161211 142.21827663 18.89860606 137.65897369 C18.90487116 132.88772212 18.90544589 128.11646989 18.90663147 123.34521484 C18.90973549 114.31794537 18.91793633 105.29068805 18.92798096 96.26342392 C18.93917098 85.98290361 18.94465982 75.70238272 18.94967639 65.42185783 C18.96011973 44.2812316 18.97790337 23.14061699 19 2 C12.73 2 6.46 2 0 2 C0 1.34 0 0.68 0 0 Z " fill="#090C25" transform="translate(851,454)"/>
<path d="M0 0 C18.15 0 36.3 0 55 0 C55 5.61 55 11.22 55 17 C41.47 17 27.94 17 14 17 C13.67 16.01 13.34 15.02 13 14 C12.175 14.391875 11.35 14.78375 10.5 15.1875 C5.67735212 16.30704326 3.46177034 15.00010394 -1 13 C-1.07972012 8.2965127 -0.93491183 4.67455917 0 0 Z " fill="#73FEE0" transform="translate(336,323)"/>
<path d="M0 0 C14.19 0 28.38 0 43 0 C43 6.93 43 13.86 43 21 C28.81 21 14.62 21 0 21 C0 14.07 0 7.14 0 0 Z " fill="#1A1B3E" transform="translate(371,363)"/>
<path d="M0 0 C14.19 0 28.38 0 43 0 C43 6.93 43 13.86 43 21 C28.81 21 14.62 21 0 21 C0 14.07 0 7.14 0 0 Z " fill="#1D1E3F" transform="translate(661,259)"/>
<path d="M0 0 C6.6 0 13.2 0 20 0 C20 6.93 20 13.86 20 21 C26.93 21 33.86 21 41 21 C41 27.6 41 34.2 41 41 C38.11734851 41.96088383 36.32337729 42.11670941 33.33203125 42.09765625 C32.52741455 42.09515869 31.72279785 42.09266113 30.89379883 42.09008789 C29.87697021 42.08098389 28.8601416 42.07187988 27.8125 42.0625 C22.9553125 42.0315625 22.9553125 42.0315625 18 42 C18 35.07 18 28.14 18 21 C12.06 21 6.12 21 0 21 C0 14.07 0 7.14 0 0 Z " fill="#FECB3D" transform="translate(206,573)"/>
<path d="M0 0 C6.6 0 13.2 0 20 0 C20 7.26 20 14.52 20 22 C13.4 22 6.8 22 0 22 C0 28.93 0 35.86 0 43 C-6.93 43 -13.86 43 -21 43 C-21 36.07 -21 29.14 -21 22 C-11.1 21.505 -11.1 21.505 -1 21 C-0.67 14.07 -0.34 7.14 0 0 Z " fill="#141838" transform="translate(789,699)"/>
<path d="M0 0 C13.86 0 27.72 0 42 0 C42 6.93 42 13.86 42 21 C28.14 21 14.28 21 0 21 C0 14.07 0 7.14 0 0 Z " fill="#191A3E" transform="translate(372,530)"/>
<path d="M0 0 C1.6874269 0.00015917 3.37485866 0.00585622 5.06225586 0.01586914 C6.39189613 0.01799156 6.39189613 0.01799156 7.74839783 0.02015686 C10.59133215 0.02577324 13.43418892 0.03832848 16.27709961 0.05102539 C18.19962452 0.05603828 20.12215065 0.06060155 22.04467773 0.06469727 C26.76803925 0.07489891 31.49123219 0.09447102 36.21459961 0.11352539 C36.21459961 7.04352539 36.21459961 13.97352539 36.21459961 21.11352539 C22.68459961 21.11352539 9.15459961 21.11352539 -4.78540039 21.11352539 C-4.78540039 0.14351572 -4.78540039 0.14351572 0 0 Z " fill="#1A1D40" transform="translate(708.785400390625,279.886474609375)"/>
<path d="M0 0 C6.93 0 13.86 0 21 0 C21 13.2 21 26.4 21 40 C14.07 40 7.14 40 0 40 C-1.81818182 5.45454545 -1.81818182 5.45454545 0 0 Z " fill="#3BC2EC" transform="translate(291,679)"/>
<path d="M0 0 C6.93 0 13.86 0 21 0 C21 13.86 21 27.72 21 42 C14.4 42 7.8 42 1 42 C0.85537574 38.10805776 0.7122838 34.2160992 0.57275391 30.32397461 C0.50194644 28.3663144 0.42874146 26.40874137 0.35546875 24.45117188 C0.06490371 16.29459605 -0.04601408 8.16174669 0 0 Z " fill="#191C3D" transform="translate(809,364)"/>
<path d="M0 0 C0.33 0 0.66 0 1 0 C1 6.93 1 13.86 1 21 C14.2 21 27.4 21 41 21 C41 27.6 41 34.2 41 41 C27.47 41 13.94 41 0 41 C0 27.47 0 13.94 0 0 Z " fill="#1C1F42" transform="translate(684,742)"/>
<path d="M0 0 C0.33 0 0.66 0 1 0 C1 13.53 1 27.06 1 41 C-11.87 41 -24.74 41 -38 41 C-38 34.07 -38 27.14 -38 20 C-25.46 20 -12.92 20 0 20 C0 13.4 0 6.8 0 0 Z " fill="#242443" transform="translate(287,259)"/>
<path d="M0 0 C6.6 0 13.2 0 20 0 C20 6.6 20 13.2 20 20 C26.6 20 33.2 20 40 20 C40 26.27 40 32.54 40 39 C33.07 39 26.14 39 19 39 C19 32.73 19 26.46 19 20 C12.73 20 6.46 20 0 20 C0 13.4 0 6.8 0 0 Z " fill="#1B1C3F" transform="translate(331,491)"/>
<path d="M0 0 C6.93 0 13.86 0 21 0 C21 11.22 21 22.44 21 34 C14.07 34 7.14 34 0 34 C0 22.78 0 11.56 0 0 Z " fill="#FECD3F" transform="translate(184,518)"/>
<path d="M0 0 C6.6 0 13.2 0 20 0 C20 13.53 20 27.06 20 41 C27.26 41 34.52 41 42 41 C42 48.26 42 55.52 42 63 C34.74 63 27.48 63 20 63 C20 56.07 20 49.14 20 42 C13.4 42 6.8 42 0 42 C-0.16639892 37.14371143 -0.32901097 32.287591 -0.48217773 27.4309082 C-0.53532451 25.78109656 -0.5906298 24.1313529 -0.64819336 22.48168945 C-0.7308734 20.10122331 -0.80561351 17.72061524 -0.87890625 15.33984375 C-0.90594131 14.61039047 -0.93297638 13.88093719 -0.96083069 13.12937927 C-0.98092697 12.42918167 -1.00102325 11.72898407 -1.02172852 11.00756836 C-1.04171402 10.4013414 -1.06169952 9.79511444 -1.08229065 9.17051697 C-0.9656764 6.09467301 -0.43530254 3.04711776 0 0 Z M1 1 C1 14.2 1 27.4 1 41 C6.94 40.67 12.88 40.34 19 40 C19 27.13 19 14.26 19 1 C13.06 1 7.12 1 1 1 Z " fill="#11183B" transform="translate(163,637)"/>
<path d="M0 0 C7.59 0 15.18 0 23 0 C23 7.92 23 15.84 23 24 C15.41 24 7.82 24 0 24 C0 16.08 0 8.16 0 0 Z " fill="#FCFDCD" transform="translate(219,429)"/>
<path d="M0 0 C5.1665625 -0.0309375 5.1665625 -0.0309375 10.4375 -0.0625 C11.52474365 -0.071604 12.6119873 -0.08070801 13.73217773 -0.09008789 C15.00750366 -0.09383423 15.00750366 -0.09383423 16.30859375 -0.09765625 C17.62041626 -0.10551147 17.62041626 -0.10551147 18.95874023 -0.11352539 C21 0 21 0 22 1 C22.09899523 2.54955559 22.13079524 4.10353673 22.1328125 5.65625 C22.13474609 7.06583984 22.13474609 7.06583984 22.13671875 8.50390625 C22.13285156 9.49261719 22.12898437 10.48132813 22.125 11.5 C22.13080078 12.98306641 22.13080078 12.98306641 22.13671875 14.49609375 C22.13542969 15.43582031 22.13414062 16.37554688 22.1328125 17.34375 C22.13168457 18.21193359 22.13055664 19.08011719 22.12939453 19.97460938 C22 22 22 22 21 23 C19.43827255 23.08685603 17.87270656 23.10702219 16.30859375 23.09765625 C15.45837646 23.09515869 14.60815918 23.09266113 13.73217773 23.09008789 C12.64493408 23.08098389 11.55769043 23.07187988 10.4375 23.0625 C6.993125 23.041875 3.54875 23.02125 0 23 C0 15.41 0 7.82 0 0 Z " fill="#DF4C1F" transform="translate(747,614)"/>
<path d="M0 0 C3.25875 -0.020625 6.5175 -0.04125 9.875 -0.0625 C10.90093262 -0.071604 11.92686523 -0.08070801 12.98388672 -0.09008789 C13.79100098 -0.09258545 14.59811523 -0.09508301 15.4296875 -0.09765625 C16.67081299 -0.10551147 16.67081299 -0.10551147 17.93701172 -0.11352539 C20 0 20 0 22 1 C22.33 7.93 22.66 14.86 23 22 C15.41 22 7.82 22 0 22 C0 14.74 0 7.48 0 0 Z " fill="#FDCB3B" transform="translate(268,636)"/>
<path d="M0 0 C7.59 0 15.18 0 23 0 C23 6.6 23 13.2 23 20 C15.08 20 7.16 20 -1 20 C-1 9 -1 9 0 0 Z " fill="#6BFDE6" transform="translate(433,679)"/>
<path d="M0 0 C7.26 0 14.52 0 22 0 C22 6.93 22 13.86 22 21 C14.74 21 7.48 21 0 21 C0 14.07 0 7.14 0 0 Z " fill="#79FDE1" transform="translate(541,700)"/>
<path d="M0 0 C6.93 0 13.86 0 21 0 C21 6.93 21 13.86 21 21 C14.07 21 7.14 21 0 21 C0 14.07 0 7.14 0 0 Z " fill="#383370" transform="translate(809,657)"/>
<path d="M0 0 C6.93 0 13.86 0 21 0 C21 6.93 21 13.86 21 21 C14.07 21 7.14 21 0 21 C0 14.07 0 7.14 0 0 Z " fill="#6FF8D9" transform="translate(705,636)"/>
<path d="M0 0 C0.87454834 0.00523682 1.74909668 0.01047363 2.65014648 0.01586914 C3.59438477 0.0190918 4.53862305 0.02231445 5.51147461 0.02563477 C6.50469727 0.03401367 7.49791992 0.04239258 8.52124023 0.05102539 C9.51833008 0.05553711 10.51541992 0.06004883 11.54272461 0.06469727 C14.0147551 0.07652516 16.48675496 0.09446124 18.95874023 0.11352539 C18.95874023 6.71352539 18.95874023 13.31352539 18.95874023 20.11352539 C11.69874023 20.11352539 4.43874023 20.11352539 -3.04125977 20.11352539 C-3.07219727 15.44196289 -3.07219727 15.44196289 -3.10375977 10.67602539 C-3.11286377 9.6931958 -3.12196777 8.71036621 -3.13134766 7.69775391 C-3.13384521 6.92874756 -3.13634277 6.15974121 -3.13891602 5.36743164 C-3.14677124 4.18129272 -3.14677124 4.18129272 -3.15478516 2.97119141 C-2.99295568 0.32310438 -2.6437155 0.14703118 0 0 Z " fill="#FDD75F" transform="translate(374.041259765625,509.886474609375)"/>
<path d="M0 0 C14.85 0 29.7 0 45 0 C45 0.33 45 0.66 45 1 C37.41 1 29.82 1 22 1 C22 21.13 22 41.26 22 62 C21.67 62 21.34 62 21 62 C21 41.87 21 21.74 21 1 C14.4 1 7.8 1 1 1 C1 81.19 1 161.38 1 244 C7.93 244 14.86 244 22 244 C22 257.86 22 271.72 22 286 C21.67 286 21.34 286 21 286 C21 272.47 21 258.94 21 245 C14.4 245 7.8 245 1 245 C1 247.31 1 249.62 1 252 C0.67 252 0.34 252 0 252 C-0.33 249.69 -0.66 247.38 -1 245 C-2.98 244.67 -4.96 244.34 -7 244 C-7 243.67 -7 243.34 -7 243 C-4.69 243 -2.38 243 0 243 C0 162.81 0 82.62 0 0 Z " fill="#6B454E" transform="translate(162,392)"/>
<path d="M0 0 C7.26 0 14.52 0 22 0 C21.67 6.6 21.34 13.2 21 20 C10.605 20.495 10.605 20.495 0 21 C0 14.07 0 7.14 0 0 Z " fill="#191C3D" transform="translate(227,301)"/>
<path d="M0 0 C6.93 0 13.86 0 21 0 C21 6.6 21 13.2 21 20 C14.07 20 7.14 20 0 20 C0 13.4 0 6.8 0 0 Z " fill="#3B3470" transform="translate(830,615)"/>
<path d="M0 0 C6.6 0 13.2 0 20 0 C20 6.93 20 13.86 20 21 C13.4 21 6.8 21 0 21 C0 14.07 0 7.14 0 0 Z " fill="#201F3F" transform="translate(331,405)"/>
<path d="M0 0 C6.93 0 13.86 0 21 0 C21 6.6 21 13.2 21 20 C14.4 20 7.8 20 1 20 C0.67 13.4 0.34 6.8 0 0 Z " fill="#5BFCE7" transform="translate(642,679)"/>
<path d="M0 0 C6.93 0 13.86 0 21 0 C21 6.6 21 13.2 21 20 C14.4 20 7.8 20 1 20 C0.67 13.4 0.34 6.8 0 0 Z " fill="#191E41" transform="translate(808,678)"/>
<path d="M0 0 C6.6 0 13.2 0 20 0 C20 6.6 20 13.2 20 20 C13.4 20 6.8 20 0 20 C0 13.4 0 6.8 0 0 Z " fill="#FDD760" transform="translate(351,491)"/>
<path d="M0 0 C6.6 0 13.2 0 20 0 C20 6.6 20 13.2 20 20 C13.4 20 6.8 20 0 20 C0 13.4 0 6.8 0 0 Z " fill="#1A1B3F" transform="translate(663,406)"/>
<path d="M0 0 C6.6 0 13.2 0 20 0 C20 6.6 20 13.2 20 20 C13.4 20 6.8 20 0 20 C0 13.4 0 6.8 0 0 Z " fill="#17193E" transform="translate(351,385)"/>
<path d="M0 0 C6.93 0 13.86 0 21 0 C21 6.27 21 12.54 21 19 C14.07 19 7.14 19 0 19 C0 12.73 0 6.46 0 0 Z " fill="#18193E" transform="translate(662,511)"/>
<path d="M0 0 C5.94 0 11.88 0 18 0 C18 6.93 18 13.86 18 21 C12.06 21 6.12 21 0 21 C0 14.07 0 7.14 0 0 Z " fill="#FECD3F" transform="translate(353,280)"/>
<path d="M0 0 C6.27 0 12.54 0 19 0 C19 6.27 19 12.54 19 19 C12.73 19 6.46 19 0 19 C0 12.73 0 6.46 0 0 Z " fill="#1A1E42" transform="translate(768,722)"/>
<path d="M0 0 C0.33 0 0.66 0 1 0 C1 2.31 1 4.62 1 7 C-1.64 7 -4.28 7 -7 7 C-7 9.31 -7 11.62 -7 14 C-9.64 14 -12.28 14 -15 14 C-15 42.05 -15 70.1 -15 99 C-22.92 99 -30.84 99 -39 99 C-39 91.41 -39 83.82 -39 76 C-38.67 76 -38.34 76 -38 76 C-38 82.93 -38 89.86 -38 97 C-31.07 97 -24.14 97 -17 97 C-17 83.8 -17 70.6 -17 57 C-23.93 57 -30.86 57 -38 57 C-38 48.42 -38 39.84 -38 31 C-37.67 31 -37.34 31 -37 31 C-37 39.25 -37 47.5 -37 56 C-30.4 56 -23.8 56 -17 56 C-17 41.81 -17 27.62 -17 13 C-11 10 -11 10 -9 10 C-8.34 8.35 -7.68 6.7 -7 5 C-4.69 5.33 -2.38 5.66 0 6 C0 4.02 0 2.04 0 0 Z " fill="#4CE0E6" transform="translate(329,622)"/>
<path d="M0 0 C0.33 0 0.66 0 1 0 C1 7.92 1 15.84 1 24 C-5.27 24 -11.54 24 -18 24 C-18 15 -18 15 -17 7 C-11.39 7.33 -5.78 7.66 0 8 C0 5.36 0 2.72 0 0 Z " fill="#6FFDE1" transform="translate(288,569)"/>
<path d="M0 0 C2.97 0 5.94 0 9 0 C8.01 1.485 8.01 1.485 7 3 C5.02 3 3.04 3 1 3 C1 36 1 69 1 103 C8.26 103 15.52 103 23 103 C23 103.33 23 103.66 23 104 C17.54299375 104.90950104 12.21309277 105.06334683 6.6875 105.03125 C5.94693359 105.02899414 5.20636719 105.02673828 4.44335938 105.02441406 C2.62889744 105.01856096 0.81444601 105.0095946 -1 105 C-1.02319727 92.49094028 -1.04095273 79.98188571 -1.05181217 67.47280884 C-1.05702484 61.66399372 -1.06409313 55.85519335 -1.07543945 50.04638672 C-1.08632577 44.43781388 -1.09228901 38.8292552 -1.09487724 33.22067261 C-1.09672114 31.0837278 -1.10032178 28.94678373 -1.10573006 26.80984497 C-1.11301673 23.8107131 -1.11398773 20.81163933 -1.11352539 17.8125 C-1.11712067 16.93424057 -1.12071594 16.05598114 -1.12442017 15.15110779 C-1.11587772 10.01090399 -0.74051441 5.08803066 0 0 Z " fill="#57C3CB" transform="translate(353,637)"/>
<path d="M0 0 C7.59 0 15.18 0 23 0 C23.04513959 7.9188728 23.08185179 15.837646 23.10362434 23.75661278 C23.11407274 27.4334935 23.12825102 31.11028183 23.15087891 34.78710938 C23.17256991 38.33379655 23.18456067 41.88039472 23.18975449 45.4271431 C23.193457 46.78197252 23.20068689 48.13679694 23.21146011 49.49158859 C23.22592448 51.38545757 23.22681649 53.27941564 23.22705078 55.17333984 C23.231492 56.25255707 23.23593323 57.33177429 23.24050903 58.44369507 C23 61 23 61 21 63 C20.97448121 55.93824034 20.95706271 48.87649274 20.94506836 41.81469727 C20.94006387 39.41625524 20.93325825 37.01781624 20.92456055 34.61938477 C20.91232387 31.15640516 20.90673269 27.69346616 20.90234375 24.23046875 C20.89718246 23.17168015 20.89202118 22.11289154 20.88670349 21.02201843 C20.88620468 14.28440459 21.30099809 7.70219481 22 1 C15.07 1 8.14 1 1 1 C1 24.1 1 47.2 1 71 C1.99 71 2.98 71 4 71 C4.495 70.01 4.495 70.01 5 69 C5 69.66 5 70.32 5 71 C6.32 71.33 7.64 71.66 9 72 C8.505 72.495 8.505 72.495 8 73 C5.36 73 2.72 73 0 73 C0 48.91 0 24.82 0 0 Z " fill="#50FEF7" transform="translate(219,453)"/>
<path d="M0 0 C20.46 0 40.92 0 62 0 C62 6.6 62 13.2 62 20 C46.82 20 31.64 20 16 20 C16.33 19.34 16.66 18.68 17 18 C31.19 18 45.38 18 60 18 C60 12.39 60 6.78 60 1 C40.53 1 21.06 1 1 1 C1 4.3 1 7.6 1 11 C0.67 11 0.34 11 0 11 C0 7.37 0 3.74 0 0 Z " fill="#59FEF9" transform="translate(331,322)"/>
<path d="M0 0 C29.04 0 58.08 0 88 0 C88 4.29 88 8.58 88 13 C87.67 13 87.34 13 87 13 C86.505 7.555 86.505 7.555 86 2 C57.29 2 28.58 2 -1 2 C-0.67 1.34 -0.34 0.68 0 0 Z " fill="#57FCF2" transform="translate(475,611)"/>
<path d="M0 0 C14.19 0 28.38 0 43 0 C43 6.93 43 13.86 43 21 C28.81 21 14.62 21 0 21 C0 14.07 0 7.14 0 0 Z M2 1 C2 6.94 2 12.88 2 19 C15.2 19 28.4 19 42 19 C42 13.06 42 7.12 42 1 C28.8 1 15.6 1 2 1 Z " fill="#0D1030" transform="translate(661,259)"/>
<path d="M0 0 C7.26 0 14.52 0 22 0 C22 6.93 22 13.86 22 21 C14.74 21 7.48 21 0 21 C0 14.07 0 7.14 0 0 Z M2 1 C2 6.94 2 12.88 2 19 C7.61 19 13.22 19 19 19 C20.1874822 15.43755339 20.35067208 12.02681357 20.5625 8.3125 C20.706875 5.899375 20.85125 3.48625 21 1 C14.73 1 8.46 1 2 1 Z " fill="#72E9DD" transform="translate(541,700)"/>
<path d="M0 0 C7.26 0 14.52 0 22 0 C22 6.93 22 13.86 22 21 C14.74 20.67 7.48 20.34 0 20 C0 13.4 0 6.8 0 0 Z M2 2 C2 7.61 2 13.22 2 19 C7.94 19 13.88 19 20 19 C20 13.39 20 7.78 20 2 C14.06 2 8.12 2 2 2 Z " fill="#0D1034" transform="translate(745,301)"/>
<path d="M0 0 C1.6874269 0.00015917 3.37485866 0.00585622 5.06225586 0.01586914 C6.39189613 0.01799156 6.39189613 0.01799156 7.74839783 0.02015686 C10.59133215 0.02577324 13.43418892 0.03832848 16.27709961 0.05102539 C18.19962452 0.05603828 20.12215065 0.06060155 22.04467773 0.06469727 C26.76803925 0.07489891 31.49123219 0.09447102 36.21459961 0.11352539 C36.21459961 7.04352539 36.21459961 13.97352539 36.21459961 21.11352539 C35.88459961 21.11352539 35.55459961 21.11352539 35.21459961 21.11352539 C34.21459961 16.11352539 34.21459961 16.11352539 34.21459961 2.11352539 C21.67459961 2.11352539 9.13459961 2.11352539 -3.78540039 2.11352539 C-3.78540039 8.38352539 -3.78540039 14.65352539 -3.78540039 21.11352539 C-4.11540039 21.11352539 -4.44540039 21.11352539 -4.78540039 21.11352539 C-4.81428186 17.80104352 -4.83215838 14.48859372 -4.84790039 11.17602539 C-4.8562793 10.23049805 -4.8646582 9.2849707 -4.87329102 8.31079102 C-4.87651367 7.41166992 -4.87973633 6.51254883 -4.88305664 5.58618164 C-4.88829346 4.75352783 -4.89353027 3.92087402 -4.89892578 3.06298828 C-4.6897201 -0.52950067 -3.7562619 0.11265152 0 0 Z " fill="#0F0E2C" transform="translate(708.785400390625,279.886474609375)"/>
<path d="M0 0 C0.33 0.99 0.66 1.98 1 3 C3.64 3 6.28 3 9 3 C11 8.75 11 8.75 11 11 C12.98 11 14.96 11 17 11 C17.93423645 14.01031744 18.04449911 14.86650268 17 18 C19.31 18.33 21.62 18.66 24 19 C24 33.52 24 48.04 24 63 C23.67 63 23.34 63 23 63 C21.83975004 55.64254191 21.85174703 48.37457427 21.875 40.9375 C21.86919922 39.07641602 21.86919922 39.07641602 21.86328125 37.17773438 C21.86951341 31.35378236 21.92682901 25.73209584 23 20 C20.69 20 18.38 20 16 20 C16 17.36 16 14.72 16 12 C13.36 12 10.72 12 8 12 C8 9.36 8 6.72 8 4 C5.36 4 2.72 4 0 4 C0 2.68 0 1.36 0 0 Z " fill="#4AFCF4" transform="translate(733,440)"/>
<path d="M0 0 C0.66 0 1.32 0 2 0 C2 6.6 2 13.2 2 20 C7.87883003 19.96042231 7.87883003 19.96042231 13.75756836 19.90991211 C14.48596924 19.90741455 15.21437012 19.90491699 15.96484375 19.90234375 C16.7137085 19.89710693 17.46257324 19.89187012 18.23413086 19.88647461 C20 20 20 20 21 21 C21.08669432 22.4887186 21.10703494 23.981445 21.09765625 25.47265625 C21.09515869 26.28226807 21.09266113 27.09187988 21.09008789 27.92602539 C21.08098389 28.96106201 21.07187988 29.99609863 21.0625 31.0625 C21.041875 34.341875 21.02125 37.62125 21 41 C27.6 41 34.2 41 41 41 C41 41.33 41 41.66 41 42 C34.07 42 27.14 42 20 42 C20 35.4 20 28.8 20 22 C13.4 22 6.8 22 0 22 C0 14.74 0 7.48 0 0 Z " fill="#0A0D28" transform="translate(205,700)"/>
<path d="M0 0 C0.66 0.33 1.32 0.66 2 1 C4.98763355 1.15733249 7.95541151 1.25861415 10.9453125 1.31640625 C12.27283035 1.3475779 12.27283035 1.3475779 13.62716675 1.37937927 C16.45969741 1.44486598 19.29232225 1.50375562 22.125 1.5625 C24.04297857 1.60568606 25.96094754 1.64930037 27.87890625 1.69335938 C32.58584051 1.80054647 37.29286967 1.9018164 42 2 C42 2.33 42 2.66 42 3 C27.02046936 4.32102947 12.02318657 4.09899707 -3 4 C-3 6.64 -3 9.28 -3 12 C-5.64 12 -8.28 12 -11 12 C-11 14.64 -11 17.28 -11 20 C-12.98 19.67 -14.96 19.34 -17 19 C-17 18.67 -17 18.34 -17 18 C-15.35 18 -13.7 18 -12 18 C-12 15.69 -12 13.38 -12 11 C-9.36 11 -6.72 11 -4 11 C-4 9.02 -4 7.04 -4 5 C-4.66 5 -5.32 5 -6 5 C-6 4.34 -6 3.68 -6 3 C-4.02 2.67 -2.04 2.34 0 2 C0 1.34 0 0.68 0 0 Z " fill="#50FEF6" transform="translate(414,609)"/>
<path d="M0 0 C6.6 0 13.2 0 20 0 C20 0.33 20 0.66 20 1 C14.06 1 8.12 1 2 1 C2 6.61 2 12.22 2 18 C7.61 18 13.22 18 19 18 C19 13.05 19 8.1 19 3 C19.33 3 19.66 3 20 3 C20.495 11.415 20.495 11.415 21 20 C14.07 20 7.14 20 0 20 C0 13.4 0 6.8 0 0 Z " fill="#61FCEF" transform="translate(705,637)"/>
<path d="M0 0 C2.31 0 4.62 0 7 0 C7 2.31 7 4.62 7 7 C9.97 7 12.94 7 16 7 C16 9.97 16 12.94 16 16 C18.64 16 21.28 16 24 16 C24 18.97 24 21.94 24 25 C26.97 25 29.94 25 33 25 C32.67 27.64 32.34 30.28 32 33 C31.67 33 31.34 33 31 33 C31 30.69 31 28.38 31 26 C30.05125 26.185625 29.1025 26.37125 28.125 26.5625 C25 27 25 27 23 26 C23 23.36 23 20.72 23 18 C20.03 18 17.06 18 14 18 C13.67 15.36 13.34 12.72 13 10 C9.95086772 8.98888907 9.95086772 8.98888907 7 10 C5.5216774 7.04335481 5.93967217 4.25770263 6 1 C4.02 1 2.04 1 0 1 C0 0.67 0 0.34 0 0 Z " fill="#4FFCF2" transform="translate(250,525)"/>
<path d="M0 0 C0.66 0 1.32 0 2 0 C2 13.86 2 27.72 2 42 C1.34 42 0.68 42 0 42 C-0.16721165 36.17944212 -0.32781152 30.35875454 -0.48217773 24.5378418 C-0.53567894 22.55602051 -0.5910143 20.57424788 -0.64819336 18.5925293 C-0.72987855 15.75059507 -0.80505172 12.90855338 -0.87890625 10.06640625 C-0.90594131 9.17474258 -0.93297638 8.28307892 -0.96083069 7.36439514 C-1.01275915 5.24352554 -1.01188911 3.12147191 -1 1 C-0.67 0.67 -0.34 0.34 0 0 Z " fill="#33D0F6" transform="translate(377,699)"/>
<path d="M0 0 C2.97 0 5.94 0 9 0 C8.01 0.33 7.02 0.66 6 1 C5.67 3.97 5.34 6.94 5 10 C3.68 9.67 2.36 9.34 1 9 C0.67 9.66 0.34 10.32 0 11 C-1.30915279 12.03145371 -2.64082143 13.03542166 -4 14 C-4 13.34 -4 12.68 -4 12 C-4.66 11.67 -5.32 11.34 -6 11 C-6.33 12.65 -6.66 14.3 -7 16 C-7.33 16 -7.66 16 -8 16 C-8 13.36 -8 10.72 -8 8 C-5.36 8 -2.72 8 0 8 C0 5.36 0 2.72 0 0 Z " fill="#4AFCF0" transform="translate(370,621)"/>
<path d="M0 0 C0.33 0 0.66 0 1 0 C1.02505615 1.06959961 1.0501123 2.13919922 1.07592773 3.24121094 C1.17019528 7.21463727 1.27036858 11.18789668 1.37231445 15.16113281 C1.41559016 16.87984305 1.45727041 18.59859424 1.49731445 20.31738281 C1.55519565 22.789839 1.61883836 25.26209047 1.68359375 27.734375 C1.70030624 28.50118591 1.71701874 29.26799683 1.73423767 30.05804443 C1.83012865 33.52173984 2.07915862 36.66366251 3 40 C2.195625 40.2475 1.39125 40.495 0.5625 40.75 C-2.171081 41.72238859 -2.171081 41.72238859 -2.8125 44.125 C-2.874375 44.74375 -2.93625 45.3625 -3 46 C-3.99 45.67 -4.98 45.34 -6 45 C-6.6875 42.9375 -6.6875 42.9375 -7 41 C-7 42.65 -7 44.3 -7 46 C-7.99 46.495 -7.99 46.495 -9 47 C-9 44.69 -9 42.38 -9 40 C-6.03 40 -3.06 40 0 40 C0 26.8 0 13.6 0 0 Z " fill="#FD6F07" transform="translate(779,474)"/>
<path d="M0 0 C0.66 0 1.32 0 2 0 C2 7.26 2 14.52 2 22 C-4.93 22 -11.86 22 -19 22 C-19.33 21.34 -19.66 20.68 -20 20 C-13.4 20 -6.8 20 0 20 C0 13.4 0 6.8 0 0 Z " fill="#F28917" transform="translate(329,404)"/>
<path d="M0 0 C2.97 0 5.94 0 9 0 C8.01 1.485 8.01 1.485 7 3 C5.02 3 3.04 3 1 3 C1 22.47 1 41.94 1 62 C0.67 62 0.34 62 0 62 C0 41.54 0 21.08 0 0 Z " fill="#3AFEFE" transform="translate(353,637)"/>
<path d="M0 0 C0.33 0 0.66 0 1 0 C1 2.31 1 4.62 1 7 C2.7015625 6.9690625 2.7015625 6.9690625 4.4375 6.9375 C8 7 8 7 9 8 C9.04080783 9.99958364 9.04254356 12.00045254 9 14 C11.64 14.33 14.28 14.66 17 15 C17.33 17.31 17.66 19.62 18 22 C20.31 22.33 22.62 22.66 25 23 C25 25.64 25 28.28 25 31 C27.31 31 29.62 31 32 31 C32 31.33 32 31.66 32 32 C29.36 32 26.72 32 24 32 C24 29.36 24 26.72 24 24 C21.36 24 18.72 24 16 24 C16 21.36 16 18.72 16 16 C13.03 16 10.06 16 7 16 C7 13.36 7 10.72 7 8 C4.69 8 2.38 8 0 8 C0 5.36 0 2.72 0 0 Z " fill="#FC6F08" transform="translate(315,519)"/>
<path d="M0 0 C0.33 0 0.66 0 1 0 C1 2.64 1 5.28 1 8 C3.97 8 6.94 8 10 8 C10 8.66 10 9.32 10 10 C10.99 9.67 11.98 9.34 13 9 C13 10.98 13 12.96 13 15 C14.65 15 16.3 15 18 15 C17.67 18.63 17.34 22.26 17 26 C16.67 26 16.34 26 16 26 C16 23.03 16 20.06 16 17 C13.36 17 10.72 17 8 17 C8 14.36 8 11.72 8 9 C5.36 9 2.72 9 0 9 C0 6.03 0 3.06 0 0 Z " fill="#71E8CA" transform="translate(227,526)"/>
<path d="M0 0 C8.58 0 17.16 0 26 0 C26 6.27 26 12.54 26 19 C27.65 19 29.3 19 31 19 C31 19.33 31 19.66 31 20 C28.69 20.33 26.38 20.66 24 21 C24 14.4 24 7.8 24 1 C16.08 1 8.16 1 0 1 C0 0.67 0 0.34 0 0 Z " fill="#DE3716" transform="translate(289,721)"/>
<path d="M0 0 C0.87454834 0.00523682 1.74909668 0.01047363 2.65014648 0.01586914 C3.59438477 0.0190918 4.53862305 0.02231445 5.51147461 0.02563477 C6.50469727 0.03401367 7.49791992 0.04239258 8.52124023 0.05102539 C9.51833008 0.05553711 10.51541992 0.06004883 11.54272461 0.06469727 C14.01478872 0.07652532 16.48673541 0.0930069 18.95874023 0.11352539 C18.95874023 0.77352539 18.95874023 1.43352539 18.95874023 2.11352539 C12.35874023 2.11352539 5.75874023 2.11352539 -1.04125977 2.11352539 C-1.04125977 8.05352539 -1.04125977 13.99352539 -1.04125977 20.11352539 C-1.37125977 20.11352539 -1.70125977 20.11352539 -2.04125977 20.11352539 C-2.23720653 16.96815771 -2.42159986 13.82221925 -2.60375977 10.67602539 C-2.65983398 9.77819336 -2.7159082 8.88036133 -2.77368164 7.95532227 C-2.82202148 7.10131836 -2.87036133 6.24731445 -2.92016602 5.36743164 C-2.96729736 4.57667236 -3.01442871 3.78591309 -3.06298828 2.97119141 C-3.03184293 0.30843917 -2.64004506 0.14682705 0 0 Z " fill="#261B3F" transform="translate(186.041259765625,677.886474609375)"/>
<path d="M0 0 C0 6.6 0 13.2 0 20 C-0.66 20 -1.32 20 -2 20 C-2 14.06 -2 8.12 -2 2 C-8.6 2 -15.2 2 -22 2 C-22 1.67 -22 1.34 -22 1 C-18.70837401 0.83252349 -15.41669287 0.66615639 -12.125 0.5 C-11.18785156 0.45230469 -10.25070312 0.40460938 -9.28515625 0.35546875 C-8.38925781 0.31035156 -7.49335937 0.26523437 -6.5703125 0.21875 C-5.74289551 0.17685547 -4.91547852 0.13496094 -4.06298828 0.09179688 C-2.70965236 0.03157743 -1.35467505 0 0 0 Z " fill="#D1771D" transform="translate(685,404)"/>
<path d="M0 0 C0.66 0 1.32 0 2 0 C2 5.94 2 11.88 2 18 C-0.50100574 19.25050287 -2.00343052 19.02993449 -4.7890625 18.87890625 C-5.73007812 18.83056641 -6.67109375 18.78222656 -7.640625 18.73242188 C-8.62546875 18.67634766 -9.6103125 18.62027344 -10.625 18.5625 C-11.61757813 18.51029297 -12.61015625 18.45808594 -13.6328125 18.40429688 C-16.08884568 18.27441051 -18.5444936 18.13943836 -21 18 C-21 17.67 -21 17.34 -21 17 C-14.07 17 -7.14 17 0 17 C0 11.39 0 5.78 0 0 Z " fill="#ED8618" transform="translate(683,513)"/>
<path d="M0 0 C2.31 0 4.62 0 7 0 C6.01 0.495 6.01 0.495 5 1 C2.91463494 4.98844296 2.78507 8.36096477 2.875 12.8125 C2.89304687 13.97394531 2.91109375 15.13539063 2.9296875 16.33203125 C2.95289063 17.21246094 2.97609375 18.09289062 3 19 C2.34 19 1.68 19 1 19 C0.67 12.73 0.34 6.46 0 0 Z " fill="#52FCEF" transform="translate(289,630)"/>
<path d="M0 0 C1.32 0.33 2.64 0.66 4 1 C3.01 1 2.02 1 1 1 C1 3.64 1 6.28 1 9 C-1.64 9.33 -4.28 9.66 -7 10 C-6.938125 10.78375 -6.87625 11.5675 -6.8125 12.375 C-6.874375 13.24125 -6.93625 14.1075 -7 15 C-10.4352048 17.29013653 -11.985331 17.17842973 -16 17 C-16 16.34 -16 15.68 -16 15 C-13.69 15 -11.38 15 -9 15 C-9 12.69 -9 10.38 -9 8 C-6.03 8 -3.06 8 0 8 C0 5.36 0 2.72 0 0 Z " fill="#FD700A" transform="translate(331,621)"/>
<path d="M0 0 C1.98 0 3.96 0 6 0 C4.80100302 3.0831351 3.52299523 6.06279492 2 9 C-0.64 9 -3.28 9 -6 9 C-6 11.31 -6 13.62 -6 16 C-6.33 16 -6.66 16 -7 16 C-7 13.36 -7 10.72 -7 8 C-4.69 8 -2.38 8 0 8 C0 5.36 0 2.72 0 0 Z " fill="#4BFDF2" transform="translate(731,519)"/>
<path d="M0 0 C2.97 0 5.94 0 9 0 C8.25 2.9375 8.25 2.9375 7 6 C5.0625 6.8125 5.0625 6.8125 3 7 C2.01 7.33 1.02 7.66 0 8 C0 5.36 0 2.72 0 0 Z " fill="#4EFCEA" transform="translate(288,370)"/>
<path d="M0 0 C0.33 0 0.66 0 1 0 C1 2.31 1 4.62 1 7 C-1.31 7 -3.62 7 -6 7 C-6 9.64 -6 12.28 -6 15 C-8.64 15 -11.28 15 -14 15 C-13.01 14.34 -12.02 13.68 -11 13 C-9.84478498 10.52869082 -9.84478498 10.52869082 -9 8 C-8.67 7.34 -8.34 6.68 -8 6 C-5.36 6 -2.72 6 0 6 C0 4.02 0 2.04 0 0 Z " fill="#42FDF4" transform="translate(732,552)"/>
<path d="M0 0 C0.66 0 1.32 0 2 0 C2 2.31 2 4.62 2 7 C4.97 7 7.94 7 11 7 C10.67 8.98 10.34 10.96 10 13 C9.01 13.33 8.02 13.66 7 14 C7 12.68 7 11.36 7 10 C6.030625 9.87625 5.06125 9.7525 4.0625 9.625 C3.051875 9.41875 2.04125 9.2125 1 9 C-0.4783226 6.04335481 -0.06032783 3.25770263 0 0 Z " fill="#57FBEA" transform="translate(345,552)"/>
<path d="M0 0 C0.33 0 0.66 0 1 0 C1 2.64 1 5.28 1 8 C3.31 8 5.62 8 8 8 C8 10.64 8 13.28 8 16 C10.97 16 13.94 16 17 16 C17 16.33 17 16.66 17 17 C15.35492782 17.19406478 13.70890406 17.38007935 12.0625 17.5625 C11.14597656 17.66691406 10.22945313 17.77132812 9.28515625 17.87890625 C8.15400391 17.93884766 8.15400391 17.93884766 7 18 C6 17 6 17 5.90234375 15.15234375 C5.93489583 13.1015625 5.96744792 11.05078125 6 9 C3.69 9 1.38 9 -1 9 C-0.67 6.03 -0.34 3.06 0 0 Z " fill="#E5882D" transform="translate(298,536)"/>
<path d="M0 0 C2.64 0 5.28 0 8 0 C7.67 1.65 7.34 3.3 7 5 C5.68 5 4.36 5 3 5 C2.01 5.33 1.02 5.66 0 6 C0 4.02 0 2.04 0 0 Z " fill="#4EFCEE" transform="translate(279,378)"/>
<path d="M0 0 C0.66 0 1.32 0 2 0 C2 2.97 2 5.94 2 9 C-0.97 9 -3.94 9 -7 9 C-7.33 9.99 -7.66 10.98 -8 12 C-8.33 11.01 -8.66 10.02 -9 9 C-8.67 8.34 -8.34 7.68 -8 7 C-5.36 7 -2.72 7 0 7 C0 4.69 0 2.38 0 0 Z " fill="#F27C1A" transform="translate(684,565)"/>
<path d="M0 0 C0.33 0 0.66 0 1 0 C1 2.64 1 5.28 1 8 C-1.64 8 -4.28 8 -7 8 C-7 10.31 -7 12.62 -7 15 C-9.64 15 -12.28 15 -15 15 C-15 14.67 -15 14.34 -15 14 C-12.69 14 -10.38 14 -8 14 C-8.020625 12.865625 -8.04125 11.73125 -8.0625 10.5625 C-8 7 -8 7 -7 6 C-5.00041636 5.95919217 -2.99954746 5.95745644 -1 6 C-0.67 4.02 -0.34 2.04 0 0 Z " fill="#44FDF7" transform="translate(748,536)"/>
<path d="M0 0 C0.33 0 0.66 0 1 0 C1.66 3.96 2.32 7.92 3 12 C4.32 12.33 5.64 12.66 7 13 C5.33388095 13.042721 3.66617115 13.04063832 2 13 C1.67 12.67 1.34 12.34 1 12 C-1.18292774 11.76518307 -3.37203174 11.58636677 -5.5625 11.4375 C-6.76003906 11.35371094 -7.95757813 11.26992188 -9.19140625 11.18359375 C-10.11824219 11.12300781 -11.04507813 11.06242187 -12 11 C-12 10.67 -12 10.34 -12 10 C-6.555 9.505 -6.555 9.505 -1 9 C-0.67 6.03 -0.34 3.06 0 0 Z " fill="#2C2D49" transform="translate(785,330)"/>
<path d="M0 0 C0.33 0 0.66 0 1 0 C1 2.97 1 5.94 1 9 C3.64 9 6.28 9 9 9 C8.67 10.32 8.34 11.64 8 13 C7.67 12.34 7.34 11.68 7 11 C6.01 11 5.02 11 4 11 C3.67 11.66 3.34 12.32 3 13 C2.34 13 1.68 13 1 13 C0.63631108 11.39796533 0.28438048 9.79325797 -0.0625 8.1875 C-0.25972656 7.29417969 -0.45695313 6.40085937 -0.66015625 5.48046875 C-1 3 -1 3 0 0 Z " fill="#60FCEE" transform="translate(641,323)"/>
<path d="M0 0 C0.33 0 0.66 0 1 0 C1.33 1.98 1.66 3.96 2 6 C-0.64 6 -3.28 6 -6 6 C-6 8.64 -6 11.28 -6 14 C-6.33 14 -6.66 14 -7 14 C-7.33 10.7 -7.66 7.4 -8 4 C-7.05125 3.896875 -6.1025 3.79375 -5.125 3.6875 C-1.70892499 3.31460705 -1.70892499 3.31460705 0 0 Z " fill="#62F0D9" transform="translate(337,615)"/>
<path d="M0 0 C0.66 0 1.32 0 2 0 C2 4.95 2 9.9 2 15 C1.01 15 0.02 15 -1 15 C-0.67 10.05 -0.34 5.1 0 0 Z " fill="#64FDEE" transform="translate(561,704)"/>
<path d="M0 0 C2.31 0 4.62 0 7 0 C6.67 0.99 6.34 1.98 6 3 C5.01 3.33 4.02 3.66 3 4 C1.78130071 6.50447516 1.78130071 6.50447516 1 9 C0.67 9 0.34 9 0 9 C0 6.03 0 3.06 0 0 Z " fill="#4CFDEB" transform="translate(297,621)"/>
<path d="M0 0 C1.32 0 2.64 0 4 0 C4 2.97 4 5.94 4 9 C3.01 8.67 2.02 8.34 1 8 C1.33 7.01 1.66 6.02 2 5 C1.01 5.33 0.02 5.66 -1 6 C-0.67 4.02 -0.34 2.04 0 0 Z " fill="#FD740D" transform="translate(705,380)"/>
<path d="M0 0 C0.99 0.495 0.99 0.495 2 1 C2 3.31 2 5.62 2 8 C3.65 8 5.3 8 7 8 C7 8.66 7 9.32 7 10 C4.69 10 2.38 10 0 10 C0 6.7 0 3.4 0 0 Z " fill="#5AFDF1" transform="translate(609,320)"/>
<path d="M0 0 C0.99 0.99 1.98 1.98 3 3 C-0.35327639 5.23551759 -0.90743657 5.17283528 -4.6875 4.625 C-5.89986328 4.45871094 -5.89986328 4.45871094 -7.13671875 4.2890625 C-8.05904297 4.14597656 -8.05904297 4.14597656 -9 4 C-9 6.64 -9 9.28 -9 12 C-9.33 12 -9.66 12 -10 12 C-10 9.03 -10 6.06 -10 3 C-7.68880208 2.8046875 -5.37760417 2.609375 -3.06640625 2.4140625 C-2.38449219 2.27742187 -1.70257813 2.14078125 -1 2 C-0.67 1.34 -0.34 0.68 0 0 Z " fill="#64EFD5" transform="translate(323,600)"/>
<path d="M0 0 C0.66 0.33 1.32 0.66 2 1 C2 7.6 2 14.2 2 21 C1.67 21 1.34 21 1 21 C1 15.39 1 9.78 1 4 C0.34 4 -0.32 4 -1 4 C-0.67 2.68 -0.34 1.36 0 0 Z " fill="#2B2F4C" transform="translate(414,806)"/>
<path d="M0 0 C0.66 0 1.32 0 2 0 C2 2.64 2 5.28 2 8 C-0.31 8 -2.62 8 -5 8 C-5 7.34 -5 6.68 -5 6 C-3.35 6 -1.7 6 0 6 C0 4.02 0 2.04 0 0 Z " fill="#F17A18" transform="translate(729,519)"/>
<path d="M0 0 C0 2.31 0 4.62 0 7 C-0.66 7 -1.32 7 -2 7 C-2 5.35 -2 3.7 -2 2 C-4.64 2 -7.28 2 -10 2 C-6.5980513 -0.09350689 -3.94727588 -0.17942163 0 0 Z " fill="#5FF1DD" transform="translate(719,387)"/>
<path d="M0 0 C2.31 0 4.62 0 7 0 C7 3.3 7 6.6 7 10 C5 8 5 8 4.0625 5 C3.24072925 1.72778248 3.24072925 1.72778248 0 0 Z " fill="#FC710A" transform="translate(610,330)"/>
<path d="M0 0 C0.33 0 0.66 0 1 0 C1 2.64 1 5.28 1 8 C3.97 8 6.94 8 10 8 C6.00889681 9.9955516 4.30013434 10.19546065 0 10 C-1.6415049 6.7169902 -0.51888624 3.57454967 0 0 Z " fill="#E48829" transform="translate(699,371)"/>
<path d="M0 0 C0.66 0.33 1.32 0.66 2 1 C1.67 2.98 1.34 4.96 1 7 C0.67 7 0.34 7 0 7 C-0.33 8.98 -0.66 10.96 -1 13 C-1.33 13 -1.66 13 -2 13 C-2 9.04 -2 5.08 -2 1 C-1.34 0.67 -0.68 0.34 0 0 Z " fill="#36C9F2" transform="translate(293,699)"/>
<path d="M0 0 C0.33 0 0.66 0 1 0 C1.103125 1.093125 1.20625 2.18625 1.3125 3.3125 C1.97307727 6.85559629 2.2027092 7.93243723 5 10 C0.74938644 11.41687119 -1.71851625 10.19320039 -6 9 C-6 8.67 -6 8.34 -6 8 C-4.02 8 -2.04 8 0 8 C0 5.36 0 2.72 0 0 Z " fill="#D99540" transform="translate(411,613)"/>
<path d="M0 0 C0.66 0.66 1.32 1.32 2 2 C-2.62 2 -7.24 2 -12 2 C-12 1.67 -12 1.34 -12 1 C-4.43661972 -1.52112676 -4.43661972 -1.52112676 0 0 Z " fill="#72FCE0" transform="translate(454,609)"/>
<path d="M0 0 C0.99 0 1.98 0 3 0 C3 0.99 3 1.98 3 3 C5.31 3.33 7.62 3.66 10 4 C10 4.33 10 4.66 10 5 C6.7 5 3.4 5 0 5 C0 3.35 0 1.7 0 0 Z " fill="#69FBE0" transform="translate(595,605)"/>
<path d="M0 0 C2.64 0.33 5.28 0.66 8 1 C8 1.33 8 1.66 8 2 C6.02 2 4.04 2 2 2 C2 3.98 2 5.96 2 8 C1.34 8 0.68 8 0 8 C0 5.36 0 2.72 0 0 Z " fill="#E5842B" transform="translate(403,621)"/>
<path d="M0 0 C0.33 0 0.66 0 1 0 C1 2.31 1 4.62 1 7 C2.98 7 4.96 7 7 7 C7 7.66 7 8.32 7 9 C4.69 9 2.38 9 0 9 C-1.53445094 5.93109813 -0.54984289 3.29905734 0 0 Z " fill="#6DEED4" transform="translate(634,316)"/>
<path d="M0 0 C2.97 0 5.94 0 9 0 C8.01 1.485 8.01 1.485 7 3 C3.375 3.1875 3.375 3.1875 0 3 C0 2.01 0 1.02 0 0 Z " fill="#48FCF6" transform="translate(353,637)"/>
<path d="M0 0 C0.33 0.66 0.66 1.32 1 2 C3.02463255 2.65213292 3.02463255 2.65213292 5 3 C4 4 4 4 0.4375 4.0625 C-0.696875 4.041875 -1.83125 4.02125 -3 4 C-3 3.34 -3 2.68 -3 2 C-2.01 2 -1.02 2 0 2 C0 1.34 0 0.68 0 0 Z " fill="#55FDF3" transform="translate(223,522)"/>
</svg>
